<mxfile host="65bd71144e">
    <diagram id="R-dGNtKztxl49InVlnjL" name="Page-1">
        <mxGraphModel dx="2359" dy="586" grid="1" gridSize="10" guides="1" tooltips="1" connect="1" arrows="1" fold="1" page="1" pageScale="1" pageWidth="1169" pageHeight="827" math="0" shadow="0">
            <root>
                <mxCell id="0"/>
                <mxCell id="1" parent="0"/>
                <mxCell id="9" style="edgeStyle=none;html=1;exitX=0;exitY=0.5;exitDx=0;exitDy=0;entryX=1;entryY=0.5;entryDx=0;entryDy=0;" parent="1" source="2" target="3" edge="1">
                    <mxGeometry relative="1" as="geometry">
                        <Array as="points">
                            <mxPoint x="340" y="100"/>
                        </Array>
                    </mxGeometry>
                </mxCell>
                <mxCell id="10" style="edgeStyle=none;html=1;exitX=1;exitY=0.5;exitDx=0;exitDy=0;entryX=0;entryY=0.5;entryDx=0;entryDy=0;" parent="1" source="2" target="4" edge="1">
                    <mxGeometry relative="1" as="geometry">
                        <Array as="points">
                            <mxPoint x="780" y="100"/>
                        </Array>
                    </mxGeometry>
                </mxCell>
                <mxCell id="2" value="ACCUEIL&lt;br&gt;CONNEXION" style="shape=process;whiteSpace=wrap;html=1;backgroundOutline=1;" parent="1" vertex="1">
                    <mxGeometry x="440" y="40" width="240" height="120" as="geometry"/>
                </mxCell>
                <mxCell id="364" style="edgeStyle=none;html=1;entryX=0.5;entryY=0;entryDx=0;entryDy=0;fillColor=#6666FF;" parent="1" source="3" edge="1">
                    <mxGeometry relative="1" as="geometry">
                        <mxPoint x="-297.25" y="280" as="targetPoint"/>
                    </mxGeometry>
                </mxCell>
                <mxCell id="3" value="PILOTE" style="rounded=0;whiteSpace=wrap;html=1;" parent="1" vertex="1">
                    <mxGeometry x="-358" y="80" width="120" height="40" as="geometry"/>
                </mxCell>
                <mxCell id="363" style="edgeStyle=none;html=1;fillColor=#6666FF;" parent="1" source="4" target="180" edge="1">
                    <mxGeometry relative="1" as="geometry"/>
                </mxCell>
                <mxCell id="4" value="ADMINISTRATEUR" style="rounded=0;whiteSpace=wrap;html=1;" parent="1" vertex="1">
                    <mxGeometry x="1158" y="80" width="120" height="40" as="geometry"/>
                </mxCell>
                <mxCell id="150" value="" style="group" parent="1" vertex="1" connectable="0">
                    <mxGeometry x="-950" y="280" width="983.5" height="1300" as="geometry"/>
                </mxCell>
                <mxCell id="80" value="PROFIL" style="swimlane;strokeColor=#007FFF;" parent="150" vertex="1">
                    <mxGeometry x="-179" y="537" width="280" height="513" as="geometry">
                        <mxRectangle x="240" y="280" width="150" height="23" as="alternateBounds"/>
                    </mxGeometry>
                </mxCell>
                <mxCell id="106" value="photo" style="ellipse;whiteSpace=wrap;html=1;aspect=fixed;strokeColor=#007FFF;" parent="80" vertex="1">
                    <mxGeometry x="100" y="48" width="80" height="80" as="geometry"/>
                </mxCell>
                <mxCell id="107" value="NOM ET PRENOM" style="text;html=1;strokeColor=none;fillColor=none;align=center;verticalAlign=middle;whiteSpace=wrap;rounded=0;" parent="80" vertex="1">
                    <mxGeometry x="80" y="140" width="120" height="30" as="geometry"/>
                </mxCell>
                <mxCell id="108" value="modifier" style="rounded=1;whiteSpace=wrap;html=1;strokeColor=#007FFF;" parent="80" vertex="1">
                    <mxGeometry x="180" y="108" width="50" height="20" as="geometry"/>
                </mxCell>
                <mxCell id="109" value="PILOTE: true/false" style="text;html=1;strokeColor=none;fillColor=none;align=center;verticalAlign=middle;whiteSpace=wrap;rounded=0;" parent="80" vertex="1">
                    <mxGeometry x="65" y="164" width="150" height="30" as="geometry"/>
                </mxCell>
                <mxCell id="110" value="CREDITS : xxx.xx €" style="text;html=1;strokeColor=none;fillColor=none;align=center;verticalAlign=middle;whiteSpace=wrap;rounded=0;" parent="80" vertex="1">
                    <mxGeometry x="65" y="191" width="150" height="30" as="geometry"/>
                </mxCell>
                <mxCell id="111" value="HEURES DE VOLS : xx" style="text;html=1;strokeColor=none;fillColor=none;align=center;verticalAlign=middle;whiteSpace=wrap;rounded=0;" parent="80" vertex="1">
                    <mxGeometry x="50" y="223" width="180" height="30" as="geometry"/>
                </mxCell>
                <mxCell id="118" value="SUPPRIMER" style="rounded=1;whiteSpace=wrap;html=1;strokeColor=red;" parent="80" vertex="1">
                    <mxGeometry x="70" y="443" width="140" height="40" as="geometry"/>
                </mxCell>
                <mxCell id="126" value="INSTRUCTEUR : true/false" style="text;html=1;strokeColor=none;fillColor=none;align=center;verticalAlign=middle;whiteSpace=wrap;rounded=0;" parent="80" vertex="1">
                    <mxGeometry x="35" y="252" width="210" height="30" as="geometry"/>
                </mxCell>
                <mxCell id="127" value="ADMINISTRATEUR : true/false" style="text;html=1;strokeColor=none;fillColor=none;align=center;verticalAlign=middle;whiteSpace=wrap;rounded=0;" parent="80" vertex="1">
                    <mxGeometry x="35" y="283" width="210" height="30" as="geometry"/>
                </mxCell>
                <mxCell id="234" value="MOT DE PASSE : ........." style="text;html=1;strokeColor=none;fillColor=none;align=center;verticalAlign=middle;whiteSpace=wrap;rounded=0;" parent="80" vertex="1">
                    <mxGeometry x="30" y="315" width="210" height="30" as="geometry"/>
                </mxCell>
                <mxCell id="313" value="modifier" style="rounded=1;whiteSpace=wrap;html=1;strokeColor=#007FFF;" parent="80" vertex="1">
                    <mxGeometry x="210" y="320" width="50" height="20" as="geometry"/>
                </mxCell>
                <mxCell id="340" value="DATE D'INSCRIPTION: jj/mm/AAAA" style="text;html=1;strokeColor=none;fillColor=none;align=center;verticalAlign=middle;whiteSpace=wrap;rounded=0;" parent="80" vertex="1">
                    <mxGeometry x="30" y="345" width="210" height="30" as="geometry"/>
                </mxCell>
                <mxCell id="374" value="EMAIL : xxxxxxxx" style="text;html=1;strokeColor=none;fillColor=none;align=center;verticalAlign=middle;whiteSpace=wrap;rounded=0;" parent="80" vertex="1">
                    <mxGeometry x="35" y="374" width="210" height="30" as="geometry"/>
                </mxCell>
                <mxCell id="117" style="edgeStyle=none;html=1;exitX=0;exitY=0.5;exitDx=0;exitDy=0;entryX=0.5;entryY=0;entryDx=0;entryDy=0;fillColor=#6666FF;" parent="150" source="114" target="80" edge="1">
                    <mxGeometry relative="1" as="geometry">
                        <Array as="points">
                            <mxPoint x="-39" y="53"/>
                        </Array>
                    </mxGeometry>
                </mxCell>
                <mxCell id="125" value="" style="group" parent="150" vertex="1" connectable="0">
                    <mxGeometry x="320" width="663.5" height="490" as="geometry"/>
                </mxCell>
                <mxCell id="31" value="TABLEAU DE BORD" style="swimlane;strokeColor=#007FFF;" parent="125" vertex="1">
                    <mxGeometry width="663.5" height="490" as="geometry">
                        <mxRectangle x="240" y="280" width="150" height="23" as="alternateBounds"/>
                    </mxGeometry>
                </mxCell>
                <mxCell id="32" value="NOM DU PILOTE" style="text;html=1;strokeColor=none;fillColor=none;align=center;verticalAlign=middle;whiteSpace=wrap;rounded=0;" parent="31" vertex="1">
                    <mxGeometry x="65" y="39.5" width="110" height="30" as="geometry"/>
                </mxCell>
                <mxCell id="49" value="CREDIT : xxx.xx€" style="text;html=1;strokeColor=none;fillColor=none;align=center;verticalAlign=middle;whiteSpace=wrap;rounded=0;" parent="31" vertex="1">
                    <mxGeometry x="526" y="48.5" width="150" height="30" as="geometry"/>
                </mxCell>
                <mxCell id="55" value="" style="swimlane;startSize=0;strokeColor=#007FFF;" parent="31" vertex="1">
                    <mxGeometry x="526" y="98" width="115" height="322" as="geometry"/>
                </mxCell>
                <mxCell id="56" value="METEO" style="text;html=1;align=center;verticalAlign=middle;resizable=0;points=[];autosize=1;strokeColor=none;fillColor=none;" parent="55" vertex="1">
                    <mxGeometry x="28.5" y="142" width="60" height="20" as="geometry"/>
                </mxCell>
                <mxCell id="63" value="CALENDRIER" style="shape=table;startSize=30;container=1;collapsible=0;childLayout=tableLayout;fontStyle=1;align=center;pointerEvents=1;strokeColor=#007FFF;" parent="31" vertex="1">
                    <mxGeometry x="21" y="98" width="260" height="220" as="geometry"/>
                </mxCell>
                <mxCell id="64" value="" style="shape=partialRectangle;html=1;whiteSpace=wrap;collapsible=0;dropTarget=0;pointerEvents=0;fillColor=none;top=0;left=0;bottom=0;right=0;points=[[0,0.5],[1,0.5]];portConstraint=eastwest;strokeColor=#007FFF;" parent="63" vertex="1">
                    <mxGeometry y="30" width="260" height="63" as="geometry"/>
                </mxCell>
                <mxCell id="65" value="" style="shape=partialRectangle;html=1;whiteSpace=wrap;connectable=0;fillColor=none;top=0;left=0;bottom=0;right=0;overflow=hidden;pointerEvents=1;strokeColor=#007FFF;" parent="64" vertex="1">
                    <mxGeometry width="87" height="63" as="geometry">
                        <mxRectangle width="87" height="63" as="alternateBounds"/>
                    </mxGeometry>
                </mxCell>
                <mxCell id="66" value="" style="shape=partialRectangle;html=1;whiteSpace=wrap;connectable=0;fillColor=none;top=0;left=0;bottom=0;right=0;overflow=hidden;pointerEvents=1;strokeColor=#007FFF;" parent="64" vertex="1">
                    <mxGeometry x="87" width="86" height="63" as="geometry">
                        <mxRectangle width="86" height="63" as="alternateBounds"/>
                    </mxGeometry>
                </mxCell>
                <mxCell id="67" value="" style="shape=partialRectangle;html=1;whiteSpace=wrap;connectable=0;fillColor=none;top=0;left=0;bottom=0;right=0;overflow=hidden;pointerEvents=1;strokeColor=#007FFF;" parent="64" vertex="1">
                    <mxGeometry x="173" width="87" height="63" as="geometry">
                        <mxRectangle width="87" height="63" as="alternateBounds"/>
                    </mxGeometry>
                </mxCell>
                <mxCell id="68" value="" style="shape=partialRectangle;html=1;whiteSpace=wrap;collapsible=0;dropTarget=0;pointerEvents=0;fillColor=none;top=0;left=0;bottom=0;right=0;points=[[0,0.5],[1,0.5]];portConstraint=eastwest;strokeColor=#007FFF;" parent="63" vertex="1">
                    <mxGeometry y="93" width="260" height="64" as="geometry"/>
                </mxCell>
                <mxCell id="69" value="" style="shape=partialRectangle;html=1;whiteSpace=wrap;connectable=0;fillColor=none;top=0;left=0;bottom=0;right=0;overflow=hidden;pointerEvents=1;strokeColor=#007FFF;" parent="68" vertex="1">
                    <mxGeometry width="87" height="64" as="geometry">
                        <mxRectangle width="87" height="64" as="alternateBounds"/>
                    </mxGeometry>
                </mxCell>
                <mxCell id="70" value="" style="shape=partialRectangle;html=1;whiteSpace=wrap;connectable=0;fillColor=none;top=0;left=0;bottom=0;right=0;overflow=hidden;pointerEvents=1;strokeColor=#007FFF;" parent="68" vertex="1">
                    <mxGeometry x="87" width="86" height="64" as="geometry">
                        <mxRectangle width="86" height="64" as="alternateBounds"/>
                    </mxGeometry>
                </mxCell>
                <mxCell id="71" value="" style="shape=partialRectangle;html=1;whiteSpace=wrap;connectable=0;fillColor=none;top=0;left=0;bottom=0;right=0;overflow=hidden;pointerEvents=1;strokeColor=#007FFF;" parent="68" vertex="1">
                    <mxGeometry x="173" width="87" height="64" as="geometry">
                        <mxRectangle width="87" height="64" as="alternateBounds"/>
                    </mxGeometry>
                </mxCell>
                <mxCell id="72" value="" style="shape=partialRectangle;html=1;whiteSpace=wrap;collapsible=0;dropTarget=0;pointerEvents=0;fillColor=none;top=0;left=0;bottom=0;right=0;points=[[0,0.5],[1,0.5]];portConstraint=eastwest;strokeColor=#007FFF;" parent="63" vertex="1">
                    <mxGeometry y="157" width="260" height="63" as="geometry"/>
                </mxCell>
                <mxCell id="73" value="" style="shape=partialRectangle;html=1;whiteSpace=wrap;connectable=0;fillColor=none;top=0;left=0;bottom=0;right=0;overflow=hidden;pointerEvents=1;strokeColor=#007FFF;" parent="72" vertex="1">
                    <mxGeometry width="87" height="63" as="geometry">
                        <mxRectangle width="87" height="63" as="alternateBounds"/>
                    </mxGeometry>
                </mxCell>
                <mxCell id="74" value="" style="shape=partialRectangle;html=1;whiteSpace=wrap;connectable=0;fillColor=none;top=0;left=0;bottom=0;right=0;overflow=hidden;pointerEvents=1;strokeColor=#007FFF;" parent="72" vertex="1">
                    <mxGeometry x="87" width="86" height="63" as="geometry">
                        <mxRectangle width="86" height="63" as="alternateBounds"/>
                    </mxGeometry>
                </mxCell>
                <mxCell id="75" value="" style="shape=partialRectangle;html=1;whiteSpace=wrap;connectable=0;fillColor=none;top=0;left=0;bottom=0;right=0;overflow=hidden;pointerEvents=1;strokeColor=#007FFF;" parent="72" vertex="1">
                    <mxGeometry x="173" width="87" height="63" as="geometry">
                        <mxRectangle width="87" height="63" as="alternateBounds"/>
                    </mxGeometry>
                </mxCell>
                <mxCell id="76" value="programmer un vol" style="rounded=1;whiteSpace=wrap;html=1;strokeColor=#007FFF;" parent="31" vertex="1">
                    <mxGeometry x="91" y="340" width="120" height="28.5" as="geometry"/>
                </mxCell>
                <mxCell id="114" value="photo" style="ellipse;whiteSpace=wrap;html=1;aspect=fixed;strokeColor=#007FFF;" parent="31" vertex="1">
                    <mxGeometry x="11" y="30" width="45.5" height="45.5" as="geometry"/>
                </mxCell>
                <UserObject label="%date{ddd mmm dd yyyy HH:MM:ss}%" placeholders="1" id="123">
                    <mxCell style="text;html=1;strokeColor=none;fillColor=none;align=center;verticalAlign=middle;whiteSpace=wrap;overflow=hidden;" parent="31" vertex="1">
                        <mxGeometry x="503.5" y="30" width="160" height="20" as="geometry"/>
                    </mxCell>
                </UserObject>
                <mxCell id="128" value="" style="shape=image;verticalLabelPosition=bottom;labelBackgroundColor=#ffffff;verticalAlign=top;aspect=fixed;imageAspect=0;image=data:image/png,iVBORw0KGgoAAAANSUhEUgAACFAAAAM3CAYAAAAQyzaXAAAACXBIWXMAAB7CAAAewgFu0HU+AABDnUlEQVR4nO3d2XLcOBIFUFBR///LnAc3R3S5Fi5YEsA5EQ71yN0eWkViy0tgWdc1AQAAwICeJ7xLk6sAAAAAoAuP1hcAAAAAmb17U2D7viAF5COoBAAAwDAEKAAAAOjZlW0VBSngmjX9PjeCSgAAAAznp/UFAAAAwEnr09c7f45zLeG8I8+N5wsAAIDuLOtqLgsAAEB4pSav3pKHY3I+g547AAAAQnKEBwAAABHtjwGQ/Ie2cj+D+z9PmAIAAIAwHOEBAABABPtjOdYX3y/9/wu8VzLk4KgPAAAAwnCEBwAAAK1Fmph6Gx7+VfsZ9RwCAADQhCM8AAAAqGlNcY/lULSFf7V4VvdH+AAAAEA1jvAAAACgtPXNVyCuCEdrRLgGAAAAJuIIDwAAAErqcdLprXdmF/m59XwCAABQjCM8AAAAyC1y8fUIxwdAXJ5PAAAAihGgAAAA4K7eAxPAr16eZ0EKAAAAshOgAAAA4IpeiqzA2PZtkTAFAAAAtwhQAAAAcNYs4QmFWWbT+7NtVwoAAABuEaAAAADgqN6Lq3esSVGWcY32bAs/AQAAcIkABQAAAJ+MVli9ShGWUY3+jNuVAgAAgMMEKAAAAHg2ekH1CjtQQN8EKQAAAPhKgAIAAICUhCaOEKKA/jneAwAAgLcEKAAAAOYmOHGOt9gZgef+D88zAAAAfxGgAAAAmMfzm9eKqDAfz/2/BCkAAABIKQlQAAAAzEoRFebjuf/M8R4AAACTE6AAAAAYn6Jpft5Yh7F5xgEAACYkQAEAADAuwYny1qTASh+0B9fYlQIAAGAiAhQAAABjUSQFKMOuFAAAAIP7aX0BAAAAZCE40Y6fPdG5R/Nak58pAADAkJZ1Nd8DAADonIldHN5MJxJtQz2efQAAgAE4wgMAAKBPCqMxrUkhlRi0EXU53gMAAGAAAhQAAAD9UBCNT/EU5iZIAQAA0LGf1hcAAAAAAxFyAVL60xZsvwAAAOiEHSgAAABiU3zrj2M8aE27EYtdKQAAADohQAEAABCP4mf/FExpQdsRm3YBAAAgOAEKAACAGBQ+gTu0If3Yf1bCFAAAAIH8tL4AAAAAFD4BJrUmfQAAAEAYdqAAAABoR9FsfLbspwZtSf/sSgEAABCAHSgAAADaUPCci8+b3Nanr4zDrhQAAACNCFAAAADUo+AJ5KQtGZsgBQAAQGXLupqHAQAAVGDyRUq25icP7cm8tCEAAAAFPVpfAAAAwOAUOtnb7gdFUOAKbQgAAEBBjvAAAAAoR3iCd9wbXOXeISXHewAAABQhQAEAAJCfwhbfeHscyEFfAwAAkJEABQAAQD6CExzlPuEK9w2vuC8AAAAyebS+AAAAgE4pWHHXdg/ZjYJv1uQ+4bN9n+ReAQAAuMgOFAAAANCWnUv4ZH36Ct9oUwAAAC4SoAAAADhPYYrcvDEO5CZIAQAAcJIABQAAALSnyMkr7gtyEKQAAAA4SIACAAAAYlDkZM+9QE52uQEAADhAgAIAAOAcRU1Kc4/hHiA39xQAAMABAhQAAADneIuX0txjc1PophT3FgAAwBcCFAAAAOcpcFOSozzm5XMHAACAhgQoAAAAzlPkpAZBCgAAAICKBCgAAAAgNiGKOficqcF9BgAA8IEABQAAAMTmyBgAAACACgQoAAAAzlPQZlaf3l5//r2zR5Cs6d//5tX3vl3Pt/8mkvXpKwAAANDQsq7m6AAAABeYTFFbyeDOdj8//388f39/3y8v/r1alhf/n6++t/+9zbu/QwvaEWprfc8DAACEJkABAABwjckULVwpfq4v/rv999zL7wMZz3KGL/zcaUGAAgAA4INH6wsAAADokMInUZ3ZIcJ9/Ovbz2cLWOyDFp927VCkBgAAgA7ZgQIAAOA6EypaaHl0Bp9d2ckCahHsAQAA+MIOFAAAANAXxfe4Pu1k4cgUAAAACO6n9QUAAAB0ShEUOGNN2g3acv8BAAB8IUABAAAAAAAAAExPgAIAAAAAAAAAmJ4ABQAAAACMb2l9AQAAANEJUAAAAAAAAAAA0xOgAAAAuMabvAD0Qp8FAABwgAAFAADANWvrCwAAAAAA8hGgAAAAAICxCf0BAAAcIEABAAAAAAAAAExPgAIAAOAa58kDAAAAwEAEKAAAAK4TogAAAACAQQhQAAAAXOdMeQB6IPAHAABwgAAFAAAAAAAAADA9AQoAAAAAAAAAYHoCFAAAAAAwNkdOAQAAHCBAAQAAcJ0z5QEAAABgEAIUAAAA13mjFwAAAAAGIUABAAAAAAAAAExPgAIAAAAAxubIKQAAgAMEKAAAAAAAAACA6QlQAAAAXOeNXgAAAAAYhAAFAAAAAAAAADA9AQoAAIDr1tYXAAAH6K8AAAAOEKAAAAAAgLE5cgoAAOAAAQoAAAAAAAAAYHoCFAAAAAAAAADA9AQoAAAArrMlOgDR6asAAAAOEqAAAAAAAAAAAKYnQAEAAAAAY7L7BAAAwAkCFAAAAAAwprX1BQAAAPREgAIAAOC6NXm7FwAAAACGIEABAABwnfAEAAAAAAxCgAIAAOAe26MDAAAAwAAEKAAAAAAAAACA6QlQAAAAAMCYHDUFAABwggAFAADAPYpTAAAAADAAAQoAAAAAGNP63y8AAAAOEKAAAAC4R2EKAAAAAAYgQAEAAAAA43LUFAAAwEECFAAAAAAAAADA9AQoAAAAAGBMdp8AAAA4QYACAADgHsUpAAAAABiAAAUAAAAAAAAAMD0BCgAAAAAAAABgegIUAAAAADCmtfUFAAAA9ESAAgAAAAAAAACYngAFAADAfUvrCwCAF/RPAAAAJwhQAAAA3GeLdAAAAADonAAFAAAAAAAAADA9AQoAAAAAGI/jOwAAAE4SoAAAAACA8TheCgAA4CQBCgAAgPu85QsAAAAAnROgAAAAAAAAAACmJ0ABAAAAAAAAAExPgAIAAOA+58wDEI3jpQAAAE4SoAAAAAAAAAAApidAAQAAcJ+3fAGIRL8EAABwgQAFAAAAAIzF0VIAAAAXCFAAAAAAwHiEKAAAAE4SoAAAAAAAAAAApidAAQAAAAAAAABMT4ACAAAgj6X1BQDAjn4JAADgJAEKAACA+5wzD0AkwhMAAAAXCFAAAADcsz59BYDW9EkAAAAXCFAAAABcp0AFQER2oAAAALhAgAIAAOCcdfcLeO9KAffVf6MQDAAAAFSxrKs1PwAAgBNMopjZkv48A9vX599Lu9/fW1/8e8+/9+r7R/6cd8/kt9+HWQghAQAAHCRAAQAA8J2JE7N4DkbsC6+vAg255Pyz3/1Zn/5eMANBCgAAgC8EKAAAAL4zcaJ3n4IRKZUNR/Ti3e4Wr3bbgJ7N/qwDAAC8JUABAADwmUkTvam1a8SMXrUHAhb0SLsAAADwwk/rCwAAAAhKQZSongufy9OvT/8u97z7+b762UNU7lUAAIA37EABAADwLxMlotl2OVD47Mf++I/9kSAQhfYEAADgiQAFAADAv0yUaGlfdBeaGJM2hmi0MwAAAEmAAgAAYGNyRCv73QkUMeej7SEK7Q8AADC9R+sLAAAAgAm9KlQqXs7p1fEejvygBSEuAABgegIUAADA7BQoKU1BkiO+hWq0VQAAAFDYT+sLAAAAgAEtSXCCvNxTAAAAUNiyrl5gAAAApmMiRG4K27SiPaMEbRoAADAlR3gAAADAeYqLRLHdi4IU5LTdT9o6AABgKo7wAAAAZqPIyFWOUCCy5/vT/UoOa9JvAgAAE7EDBQAAMAsFIK549Xa/ojSRfbpntYMAAADwgR0oAACAGSgactTy9PX5+9CL/Q4U2y4CdqUAAACAD5Z1tY4IAAAMz8SHT5b0W1yGkX26z7WTHKGdBAAAhmYHCgAAYFTr01f4RFGQGXy6z+1OwRHbbiYAAABDerS+AAAAgIIUeXhHoRhe2z8b2lDesWsPAAAwJAEKAABgNAp+vKPYB+dsz4x2FQAAgCkIUAAAADAyoQm4T5CCV7b7QTsLAAAMQ4ACAAAYgaIee4p5UIbjPXhFkAIAABiGAAUAAACjULyDeuxKwTNBCgAAoHs/rS8AAADgJsU7UlKwg1aW5Pnjb/plAACgW3agAAAAoFeKthCH4z3YaJsBAIBuCVAAAAA9Upybl8IcxOd4j7mtSVsNAAB0yhEeAAAA9EAxDvrjeI95rUmABgAA6JAABQAAANEtT1+BvixJmGJWQhQAAEBXHOEBAAD0YtsSXDFmDgqtMCbHewAAABDWsq7mqwAAQHgmLvMQnID5aOPHp20HAAC64AgPAAAAolBggzl59se3JkEZAACgA47wAAAAolNwGZ/iKeBojzlsn692HwAACEmAAgAAiEoRbWyKZ8ArS9L+z2BN+gEAACAgR3gAAAARKZ6NS8EM+GbZ/WJMPlsAACAkAQoAACAa4YlxLU9fAV5almXbiUKQYkxr0t8DAAABLetqrgIAAIRikjIexU/gKn3CHPQTAABACI/WFwAAALCjUDYOxTAgh60t0T+MbdttBAAAoClHeAAAABEojAHwiaM8xuazBQAAQnCEBwAA0JpJyTgUwICa9B9j0YcAAADN2YECAACAHJakmAnUZVeKsehDAACA5uxAAQAAtGRCMgYFTCACfco49CsAAEATj9YXAAAAQLcUuIBItjZJkAIAAIBLBCgAAIDaFLb6JjQBRLdvp/Q5AAAAHPbT+gIAAADohvAE0Jslabt6tCbhFwAAoAEBCgAAoCbFkH4pQAK90vf0S5ACAACoSoACAACAT7y9DfROG9Y/IQoAAKAKAQoAAKAWxY9+LE9fAXonDAYAAMBXj9YXAAAADE1ool8KjcCItrZN/9Sf7TPTPwEAAMXYgQIAAIA9hSlgBkuyK0WvhF8AAIBi7EABAACUosDRF0VEYFZ2peiL/goAACjGDhQAAAAoRgHYkaIXgi4AAEAxdqAAAABKUNyIT5EQgF6tST8GAAAUYAcKAAAAAPilMN+HNQlsAgAAmdmBAgAAyEkhIz6FQYDvlqRPAwAAmI4ABQAAkItCEwAj2QfO9HEAAAATEKAAAACYg50nAK7b2lBBini2z0Q/BwAA3PbT+gIAAIAhKCjFpqgEkIf2NK41GY8AAAA3CVAAAABXKVLEtyTFPoDctKsAAACDcoQHAABwxZr+FJCEKGJS3AMoR98HAAAwKDtQAAAAVykgxWPHCYDytLOxOcoDAAC4TIACAABgDAp6APUIrMUnRAEAAJzmCA8AAOAsBQkA+GMfotA/AgAAdE6AAgAAOENxKBZvPwPEsbXJ+koAAIBOOcIDAAAAAPIQnohlffoKAADwkQAFAAAAAORhZ6B4hCcAAIDDBCgAAICjFCBiWJ6+AhDLkrTRAAAAXXq0vgAAACA8wYk4hCcA+rG11fpRAACATtiBAgCAGSlkHOdnFYfQBECf7EgRw5qMawAAgC/sQAEAwMj2i+T7t0CX9O8C+qu3RBU7AADGso0FAQAA/rGsq+A1AABDyjnQPRquGC18YbLQ3gj3EQC/9K3t6VsBAIC37EABAADfvSp2fCuAPIcp3u14sf/3LegDwNhehTKpa/vZG3cBAAD/sAMFAAAj6mmQeyRckdLfR48sT99/99/c0dPPcFQKOwDj09+2p78FAAD+T4ACAIDRzDTAPRu+eP7et/+GdhRzAOahz21LnwsAAPyfAAUAACMxuP3uVehi//13v08dijgAc9L3tqPv/deV8C0AAAxBgAIAgJEY3NI7BQmAuRi7xNBz//su7PApAJHS+53Mzt6TPf/sAADgHwIUAACMwsCWXu13/wBgTsYxMUTpi9+NC553gcgRgMglys8OAABuEaAAAGAUBrb0SLEBgD3jmXaO9Mmfgg1nd4FYXnyvd8Y1AAB079H6AgAAIIORFp4BgHmNWFTv1T4A8fzPm/2OD68+s0+f42ifsfAEAABDsAMFAAAjMKilRwoNALxiXNNWy2MwemdsAwBA935aXwAAAAAA8H+K0G0JTwAAwMQEKAAA6J1FbnqjMAbAN8vuF/TCuBwAgO49Wl8AAADAJJY3/wwAn2x9huI0AABAYXagAACgZwoJAAAQh/E5AABdE6AAAAAoz44TAMAshCgAAOiWIzwAAOiVhVl6IDgBQC6O8qAXxj8AAHTLDhQAAABlKB4AUMKS9DHEtiZBHwAAOiVAAQAAAABAbkIUAAB0R4ACAIAeWYwFAGZmLEQP7JQCAEB3BCgAAADyUzAAoCT9DD1wlAcAAN15tL4AAAA4ySIskSloAVDL1ucYGwEAAGRiBwoAAIA8hCcAaGFJ+iAAAIAsBCgAAADuU7gCAAAAgM4JUAAA0BNbVAMAQF/WZBwPAEAnBCgAAOiFRVeisvsEABE4ygMAAOAmAQoAAIDzFKkAiEofBQAAcJEABQAAAAAApTnKAwCA8AQoAADogYVWIlne/DMARKKPAgAAOEmAAgAAAADGJERBNO5JAABCE6AAACA6u08AAFynYE0kxvYAAIT2aH0BAAAAHVB8AgDIY03GVgAABGUHCgAAAAAAAABgegIUAABEZotfIvCGJAC9W5L+jFiM8wEACEmAAgAAAADmIEhBJEIUAACEI0ABAEBUFlSJQJEJAKAM4ywAAMIRoAAAAAAAoDaBaQAAwhGgAAAgIoupROCtSABG5SgPojDuBwAgFAEKAACAvykqATAL/R0AAMCOAAUAAMAvhSQAgLrsQgEAQBgCFAAARGMBFQCgHuFBAACA/whQAAAA/KGABMCsHF9Fa0LUAACEIEABAEAkFk4BAGA+AjwAAIQgQAEAAGDRHgCgpTUJUwMAEIAABQAAMDPBCQAAAAAgpSRAAQBAHN44o7bl6SsAzG5J+kUAAGBiAhQAAMCMFIcA4D39JK04ygMAgKYEKAAAiMAiKQAAAAAATQlQAAAAs/FWLQB8p78EAACmI0ABAEBrdp8AAIhpSYIUtGGOAABAEwIUAADATBSBAOAchWxaMGYDAKAJAQoAAAAA4B2FbAAAYBoCFAAAtOSNRmpSAAKAaxzlQW1rMlcAAKABAQoAAGB0Cj4AAAAAwFcCFAAAtOKNMmoSogAAAAAAPhKgAAAARiY4AQDQL6FrAACqEqAAAAAAAI5YknAiAAAwMAEKAABa8CYZNSjwAAAAAACHCVAAAAAAABCV8DUAANUIUAAAUJsFUGqw+wQAlOMoD2ozhwAAoAoBCgAAAADgCiEKAABgKAIUAADU5M0xalDMAQAAAABOE6AAAABGYTtxAKhP30stwtgAABQnQAEAQC0WPAEAxiREQQ3uMwAAihOgAAAARmBBHQDaEZSlhjW51wAAKEyAAgAAAAAAAACYngAFAAA1eFOMkuw+AQBtLUl/DAAADECAAgAAAADIQZACAADomgAFAACl2X2CkhRpACAWYz9Kc48BAFCMAAUAAAAAkItwIwAA0C0BCgAAoFcKNAAQkz4aAADokgAFAAAl2V4XAADIzTwDAIAiBCgAAAAAgNzsQgEAAHRHgAIAgFK8FUZJijIAEJ/+mpLMNwAAyE6AAgAA6I1iDAAAAACQnQAFAAAleBsMAAAAAICuCFAAAAAAAKXYOYqSBLcBAMhKgAIAAOiJIgwA9GdJ+nAAAKADAhQAAOTmLTBKUHQBgL4ZIwIAAOEJUAAAANEtT18BgP7oxylFOAcAgGwEKAAAyMniJbkptgDAOPTrAABAaAIUAAAAAAAAAMD0BCgAAICovKUKAMARdsIDACALAQoAAHKxaAkAwDdLEpKkDPMRAABuE6AAAAAAAKB3gjkAANwmQAEAQA7e9iI3C+AAAAAAQFUCFAAAAABAbcKS5CbUDQDAbQIUAADcZaGS3BRUAGAO+nwAACAUAQoAAAAAoAVBXHJzTwEAcIsABQAAAADQgh0oAACAUAQoAAC4wxte5KaQAgBzWZL+HwAACEKAAgAAAACAUQh5AwBwmQAFAABXWZgkN2+fAgCQg7kKAACXCFAAAAAAADASwVwAAC4RoAAAACKwyA0AczMWIKc12YUCAIALBCgAALjCYiQAAAAAAEMRoAAAAFrzxikAkJIxAXm5nwAAOE2AAgCAs+w+AQAARGfeAgDAaQIUAABAS94MBAAAAABCEKAAAOAMb3EBAFDSkgQsAQCARgQoAACAVhRHAAAoSQAcAIBTBCgAAAAAAAAAgOkJUAAAcJS3twAAqMVOVeTgPgIA4BQBCgAAoAWL2QAAlLYmQXAAAE4QoAAAAGoTngAAAAAAwhGgAAAAAAAiErokB/cRAACHCVAAAAA1WcAGAM4wduAux3gAAHCYAAUAAAAAEJXCNwAAUI0ABQAAAAAQlR0oAACAagQoAAA4wpt/5KAAAgBcYQwBAABUIUABAMARS7JwDQAAAADAwAQoAAA4yi4UAAC0IszLXeYzAAB8JUABAMBRFq25w/0DAEBrQhQAAHwkQAEAwBmK4AAAAAAADEmAAgCAs5bdLwAAqMX4EwAAKEqAAgCAOwQpOMI9AgAAAACEJ0ABAMBdzhEGAAB6INgLAMBHAhQAANxlERIAAAAAgO49Wl8AAABD2EIUdqPgmYANzKd2X6CdgbkYd3KV/gIAgK8EKAAAyMmCNsA8orT1765DoQzGFaX9IT59AQAApyzrar4BAEARBppYsIZxjNKma5dgHKO0S5SjzQcA4DQ7UAAAAACvjFic3P+dFNYAxqR9BwDgMgEKAHox4gI+c1rSn/t5hkW97e8KQB9ma7Of/74z9M0AoxutLd/mjrP10YxrtGcUgAE5wgOAHuisGNlMiwee5bnMdG9Dz7TNr2nDID7tF6+M0n67vxnZKM8pAIMSoACYhwYfyOHuQoe2aB4WxSA27fEx2jKITVvG5lt77V4BcjA2BJiAAAXAfDT8wFW5Fgq0Q+OzqAQxaX/v0bZBPNo1UjrePrtfgKuMAwEmIkABMA8NPpDT1cUDbdEcLC5BLNrevLRxEIs2bm52ngBqMg4EmIAABUB9Gl4ARmdRCWIw7ixLWwdxaO8AGJlxJ0BFj9YXADARCzoAzMDCDrRn3FnH9nPW7gEAUJJxJ0BFAhQAZVi0BmBGFnOgLWPQNixoAwBQw6vxvjEoQGYCFMCsLC4DADAKY9sYBCkAAKit9FzA2BaYzk/rCwAAAAAuE56Ix2cCdXnmAACAbJZ1NccAwtJAAUA/vJUCdRkr90HbCPVoFwGgL8bKQEh2oAAAAIB+rEmRsCc+L6hHEQYAALjt0foCgKFYGAQAgHKMt/u1JsVdKE0bCQB9yd13G28DWTjCA7hDAwIApGSRAkoz7h6LNhPK0V4CABvjbuASR3gAAABAXIqB4/GZAgAAQFCO8IB5WKQDAIpZlmVZbW8HuXmmxuVIDwAAKKvEfMoYHibgCA+Yj4ceAMhtSYqBkJMx+1y0nZCXNhQAyM2YHSZiBwqIz8QfAIhuC0+cGbdYfIDXjP/nI4AG7xlbAAAR5J6nGbdAYHaggNg8oADAyCwYwN+M/+emTYS/aRMBgJEZ/0NQP60vAAAAmNaaFEdg41nAPQB/GB8AAADN2IECyvOQAQCU580NemW+wCvaNHqlTQMAKM98AQqyAwWUZeEAAKA8Cwf0ynyBd9wb9EqfDABQnvkCFCRAAeXowAAA6jDuokfuW75xj9Aj9y0AQB3GXVCIIzzgMw8IAMD4lvRn3OetWWoxz+AMbRO1bH2hNgoAYHzmGfCGHSjgPQsGAABzEJ6gJvMMznLPUIvwBADAPIz74A07UDAyb04AAFCS0AVnmZtwhzaHs7Q5AACUYCdPhmYHCkZnsQAAgFLWZLzJce4V7nIPcZT+CQCAkow1GZoABQAAwD0KVXzj/iAX9xKf6I8AAABucoQH0blBAQAYme0ux2dOQwnajvFpOwAAGJk5DWHZgQIAAADKUAClFPcWAAAAFPBofQFMwcIOAAC8dmes7G0NgNishwAAwGvWQwjLDhTUoCEDAABmo3BKae4xAABgNmqOFCdAQQ0WdQAAID/j7Lh8NtTiXovLZwMAAPkZZ1Pcsq7uM05xwwAAQN+8rVGWORMteK7L8lwDAEDfzJk4zA4UAAAA87BgUJYiK62498rSdgIAAEzi0foCaGNZlmX93X7k00LLcuDfAQAA+nB2XK9oCIzKOgcAAMxjG/8fqXsuKf1TS2UijvCY15r+NABuAAAA4AyhitfMrYjA8/ma5xMAADhjq6GaY01IgGJuPnwAAOAoiwbvmVsRiWf1Pc8qAABwlLnVpAQoxuGDBAAAIpllocFcjIg8fwAAAPXNMhcb2k/rCyAbDyQAAAAAAABAfWq1g7ADRT98UAAAwGh6X1wwTyMyzxcAAEAsvc/TpiBAEZ8PCAAAmEFviwjmavTAcwUAABBPb3O1qTxaXwBvWTQAAAAAAAAAGMtWBxakCMgOFHX5YQMAAOTTaqHB3I6eeE4AAAD6J2xRiR0oAAAA6I1FA4hve04FKQAAAOiGHSjy8EMEAACIK2fgwvyPHnkGAAAA5uClk5t+Wl/AACwcAAAAxLamPHM38z96lev+9wwAAADEZt52kyM8rnPzAQAAAAAAABDJVse2G8UFjvD45QcBAABASq8XGMwZGYF7GwAAgHcELpIjPPbcEAAAAKSkoMw83OsAAACkpFb+f7MEKNb091mdrxYILBoAAACwWd/8M/TMfQ0AAMArn+rnz7X2oc1whMfwf0EAAAAAAAAAqGDo3Spm2YECAAAAAAAAAOCtR+sLOMluEgAAAAAAAADQxpWafTe7VvQSoBCcAAAAAAAAAID+bPX+8EEKR3gAAAAAAAAAANOLtAOFXSYAAAAAAAAAYEyfMgEhdqeIsgOF8AQAAAAAAAAAzClEZqD2DhQh/tIAAAAAAAAAQCjv8gTVdqeouQOF8AQAAAAAAAAAcEa1rEGUIzwAAAAAAAAAAJopeYSHHScAAAAAAAAAgLue8wdFjvUouQNFtXNIAAAAAAAAAIApFMsilNqBwu4TAAAAAAAAAEBuWx4he5Aid4BCcAIAAAAAAAAAKC17kCLnER7CEwAAAAAAAABATdmyCrkCFMITAAAAAAAAAEALWTILd47wEJoAAAAAAAAAACLYZxguHeuR8wgPAAAAAAAAAIAundmBwo4TAAAAAAAAAEB0z/mGQztS2IECAAAAAAAAAJieAAUAAAAAAAAAML2jAQrHdwAAAAAAAAAAPTqUeXjk+EMAAAAAAAAAAALb8g/Lu3/h0w4UwhMAAAAAAAAAwEjeZiGOHuEBAAAAAAAAADAsAQoAAAAAAAAAYHqP3T87sgMAAAAAAAAAGN1zPmJJ6XcHCuEJAAAAAAAAAGBGa0q/AYql4YUAAAAAAAAAALTy1w4UAAAAAAAAAADT+kmO7wAAAAAAAAAA5rZuO1AIUQAAAAAAAAAAM1pTcoQHAAAAAAAAAIAABQAAAAAAAACAAAUAAAAAAAAAMD0BCgAAAAAAAABgegIUAAAAAAAAAMD0BCgAAAAAAAAAgOkJUAAAAAAAAAAA0xOgAAAAAAAAAACmJ0ABAAAAAAAAAExPgAIAAAAAAAAAmJ4ABQAAAAAAAAAwPQEKAAAAAAAAAGB6AhQAAAAAAAAAwPQEKAAAAAAAAACA6QlQAAAAAAAAAADTE6AAAAAAAAAAAKYnQAEAAAAAAAAATE+AAgAAAAAAAACYngAFAAAAAAAAADA9AQoAAAAAAAAAYHoCFAAAAAAAAADA9AQoAAAAAAAAAIDpCVAAAAAAAAAAANMToAAAAAAAAAAApidAAQAAAAAAAABMT4ACAAAAAAAAAJieAAUAAAAAAAAAMD0BCgAAAAAAAABgegIUAAAAAAAAAMD0BCgAAAAAAAAAgOk9UkrLf/+8trwQAAAAAAAAAIAGlpTsQAEAAAAAAAAAIEABAAAAAAAAACBAAQAAAAAAAABMbwtQrE2vAgAAAAAAAACgjTWllB7//Y/l3b8AAAAAAAAAADCQVxkJR3gAAAAAAAAAAAhQAAAAAAAAAADTE6AAAAAAAAAAAKb3+PB7+zM/1tIXAgAAAAAAAABQyPLtXzi6A8XXPwgAAAAAAAAAIKBDmQdHeAAAAAAAAAAA0zsToLALBQAAAAAAAADQk8NZh8fFP3g9+d8BAAAAAAAAANRyepOIq0d42I0CAAAAAAAAAIjoUqbhaoACAAAAAAAAAGAYZ4/w2NsnNhzpAQAAAAAAAAC0cvskjVw7UDjSAwAAAAAAAABoIUtmwREeAAAAAAAAAMD07hzh8ew50eFYDwAAAAAAAAAgtyKnZOQMUDzbLliQAgAAAAAAAAC4q0hwYlPjCI+ifwEAAAAAAAAAYHjFswcld6DYc7wHAAAAAAAAAHBU9c0aagUonjneAwAAAAAAAAB41uyUixpHePxjWZYl/QlPLLtfAAAAAAAAAMB89tmB9b9MQf2LWNdQm0CEuhgAAAAAAAAAoKgwGy402YECAAAAAAAAACCSR+sLePItWWKHCgAAAAAAAADoR5gdJr6xAwUAAAAAAAAAMD0BCgAAAAAAAABgetGO8PjmytYejv0AAAAAAAAAgPu6OY7jitF3oBCeAAAAAAAAAIA8hq7B97YDxVn79Mv63/8e+gMFAAAAAAAAgEy2GvvQO09slnWVJ9jxwwAAACCl94sC5o30yP0MAADAJ1OEI44Y/QgPAAAAyMmCAr1xzwIAAMBBox/hcdaRRQVvZwAAAPRLMRl+HX0erIUAAAD0y1rICXagOMeCAQAAQL9yLRhYeKAX7nkAAADUuE+wA8U5ZxcM3IwAAADlKe5CeXarAAAAiMNaSCF2oAAAAKBnrRYMLFQQnWcDAAAAThKgKM/CAQAAQH5Laj/fav3/D++0vjcjPJ8AAAAjMtcqzBEeZS1PX7+xzSUAADA7CwEwDushAAAAx5xZD7F2UpAdKAAAAIiixwWAHq+ZsfV4T/Z4zQAAAAzIDhTxLOn3zYv9AoK3MQAAgJ69KpA+z3Oe/3cvRdX9PA5a6uWZSen7M3OkzQAAAOjJq9qvNYVglnX1eXTMhwcAAETWUzE3B3M0WvK8AQAAxDHbHG0YjvDomwcPAAAAAAAAIA413I7ZgWIMa/p9EPf//PzvAAAA5PJu3jH7IoG5Fy147qyFAAAA5X1bC7EuMgABivn4wAEAgKssAhxj3kVNnstjPJcAAMBV5l0TcYTHfDzgAADAVQqQx5h3UYt77RhtFwAAcJV512TsQMFRbhQAABiHyX8d5lGU5Dmuw3MMAADjMI/iKztQAAAAzEdBEOA7bSUAAMBk7EBBKW4sAACoz5sU8ZgbUYJnPR7POgAA1GduRHZ2oKAUDRYAANSzJGPwqHwu5Oaeikk7DAAAdRl/U4QABaVpvAAAoCxj7vh8RuTiXorPZwQAAGUZc1OUIzyIyo0JAMBsLACMzzyHO7QR49NGAAAwG/McwrEDBVFpMAEAgNGY53CVewcAABiNeQ4h2YGCkbiZAQCIwAIA35i7cIY2hW+0KQAARGDuwhDsQAEAAJCPxQKOcJ9wlHuFI9wnAAAAmQhQMBILBgAAtLYmbwJzjPkL37hHOEK/AwBABOYvDMMRHvDLwwAAwMbEn1rMQ3hFG0Qt2iAAADbmIZDsQAF7OgYAAKC2JZmL8Mv9AAAAtGAeAv95tL4ACGZJv29fnOksvLEBABDPncn/evO/h7P2cxHmpM2htrt9nTYLACCeK7UtcxHYcYQH5OWBAgBoy6Sf3plTzEnbRe+0XQAAbZlTQCaO8AAAAEayJkUc+mbRaz4+c3qm3wUAAIZiBwqIyYMJAMxIERH+Zl4wNm0e/E2bBwDMyLwAgrEDBcSkwwQAZrOklNKyLMZB8MvzMC6fLfxn1/d7LgCA2Rj/QEB2oIDxeKgBgJbOTP7Xk/8+zMoYfyzaPfju7BhBOwkAtGSMDwMRoIDxecgBgBosFkB5xvZ9005CedpJAKAGY3sYmCM8YHw6cgAAGIOxfb98dgAAMAZjexjco/UFAFXk7NC9zQEAvOI4Dqhje86My/ugXQQAgPaMy4HD7EABnGWgAQAA7S3J2Dwynw/UJ1gGALxiXA6cYgcK4IocAw4LGwAAcN+SjK2jsUALAAB5GFsD1QlQAK08D3ws+gIAwDWO9YjB4i4AANxjTA00t6yr9RWgGQ0QAIzHYge0Z5xdl3YP2tPuAcB4jLOBJuxAAUSTe1BkEQUAgNnYkaIOC7oAAMzKOj4wLAEKoKVaC47OhQaAetakqAhRCFKUoY2DWLRxAFBPqbV2Y2wgjJ/WFwBQQcnFFAM7AACiW5Jxaw5+jgAA9KDkmFVwERjesq7aOoBMNKgA8IcCI8Rn7HqM9gxi05YBwC9jV4AM7EABkIdFGwD4pV+E+Oym8JmfDwAAvTEXB8jg0foCAAYRYXHVABmAKCL0i8Ax++d19vGktgsgvue2eva+C4jFeBJgAI7wABiPhh2ACCwcQf9GH1dqp6Bvo7dRvPap7XZPAK0YVwIMRIACYBzPDbq3CQFozSISjGOU8aR2CcYxSrvENYIUQCuf1lyNNQEGIEABQEs6ITgu2iTc88sR0e5bIK/ofYE2CMYVvf2hnt7aevcuHNfb8w3AIB6tLwCAKVkwgPPWFGfxwDMMQErv+6Xa/USU/hGA+iLNk74xj4Jztmeml2ccgEEIUADQgokP9MuiH2f0tKAN5OO5B4B/6R8BADrw0/oCAADowpqEJwAAaM+YlGfuCQAAshGgAADgGwuSAABAZALfAABkIUABAACUZCEbAMjFuIJvBCkAALhFgAIAAAAAgJEIUgAAcIkABQAAAAAQnWI4Zy2tLwAAgP4IUAAA8I2FR+5S8AAAoDZjUAAAThOgAADgGwuPAAC0ZDzKVe4dAABOEaAAAOAbO1AAAAC9EqIAAOAwAQoAAI4QouAuC9cAALRiLAoAwCECFAAAAABAVArfAABANQIUAABALQogAAAAAEBYAhQAABzlGA9yEKIAAI4ybgAAAKoSoAAAAAAAYGTC4AAAHCJAAQAAAABEY/cJAACgOgEKAACgNgURAAAAACAcAQoAAAAAAEbl+A4AAA4ToAAA4AyLjwAAlGa3KgAAoAkBCgAAoAWFEQAAAAAgFAEKAACgFSEKAOCZ8QE52UEPAIBTBCgAADjLIiQAANADgRwAAE4RoAAAAFqyqA0AQCnC3wAAnCJAAQAAtCZEAQCkZEwAAAA0JkABAMAV3uQiJ/cTAAAAANCcAAUAAAAA0JrdJ8hNSBcAgNMEKAAAgNbWpGgCAAAAADQmQAEAAAAAtCRISW52nwAA4BIBCgAArrIoCQAAAADAMAQoAACAKLx9CgAAAAA0I0ABAAAAALQiQEludsoDAOAyAQoAAO6wOAkAAAAAwBAEKAAAgEjW5E1UAJiFPp/cBLwBALhFgAIAAAAAAAAAmJ4ABQAAEI03BwEAAACA6gQoAACAaBzjAQDj09eTmxAuAAC3CVAAAHDXkixWUobCCgCMSR9PbuYjAABkIUABAABEZSEcAAAAAKhGgAIAAIjKUR4AAAAAQDUCFAAA5GK3AEoRogCAcejXyc08BACAbAQoAACA6CyKAwAAAADFCVAAAADReVMVAPq1P5JLn05ugrYAAGQlQAEAQE4WMCllX3wBAPqyJP04AADQAQEKAABysjAOAMAzY0QAAKALAhQAAORkBwpKcn8BALAxNgQAIDsBCgAAcrOQSSneXgWAvui7AQCArghQAAAAPVGIAYA+6LMBAIDuCFAAAAAAANATu94BAFCEAAUAACVY0KQkb7QCAMzLXAMAgGIEKAAAgB4JUQAAAAAAWQlQAABQijfDAADmJOgIAAB0SYACAICShCgoSXEGAOLRP1OS+QUAAEUJUAAAAD1bk0INAAAAAJCBAAUAACUpbAMAzMPYj5LsPgEAQHECFAAAlGSRkxrcZwDQluAEAAAwBAEKAACgd4o2ANCe/hgAAOieAAUAADCCNSncAEAL+l9qsOMYAABVCFAAAFDakix4AgCMSHgCAAAYigAFAAA1WFwHAACuEMYGAKAaAQoAAGAkjvIAAAAAAC4RoAAAoAbHeFCbEAUAlKWvpQZzCAAAqhKgAACgFovs1GSxHQAAAAA4RYACAAAYkaM8AKAcfSwAADAkAQoAAGpxjActKPAAAPTJ3AEAgOoEKAAAgJFZeAeAvIQTAQCAYQlQAAAAAAAQiRAsAABNCFAAAFCbxVBqWpM3ZQEgB30qAAAwPAEKAABgBgo+AHCdfhQAAJiCAAUAAAAAAFHYsQ4AgGYEKAAAgFl4exYAztN/AgAA0xCgAACghSV5s4w2FIEAAOIyRwAAoCkBCgAAWlHIBgCIzXgNAACYigAFAACteLuMVhSDAADiMT8AAKA5AQoAAFqySEoraxKkAIBP9JMAAMB0BCgAAICZKQ4BwK/16SvUIlgNAEAIAhQAALRmsZSW3H8A8DfhCQAAYFoCFAAAwMwUiQDgD30iAAAwPQEKAABgdgpGAADt2BEMAIAwBCgAAIhgSRZOaUuIAgAAAAAmJ0ABAAAAAHMTJKQVIWoAAEIRoAAAIAoL97TmHgRgRvo/AACA/whQAAAQhbfPiGBNCkkAzEGfBwAA8ESAAgCASIQoAADKE5wgAmN/AADCEaAAAAAAAAAAAKYnQAEAQDTeRCMC25oDMCr9GxEY8wMAEJIABQAAEVlQJQpBCgAAAACYhAAFAAARKVgDAORnjEUEwtIAAIQlQAEAQEQWVQEAAAAAqEqAAgCAqIQoAADycCQVAADAAQIUAABEJkRBFApPAPRK/0UkxvcAAIQmQAEAQGQW/InGPQkAAAAAgxKgAAAgMm+oEY17EoDo1jf/DK0ZRwEAEJ4ABQAA0VloJRJHeQAAAADAoB6tLwAAAKBD+xCFkA8AUaxPXwEAADjBDhQAAPRAgRoAAPplPA8AQBcEKAAA6IVFVwAAAAAAihGgAAAAuGdNtkoHoD19EVEJQgMA0A0BCgAAemLxlcgEKQAAAACgYwIUAAAAANA3AT6iEoAGAKArj9YXAAAAAABcIjgBAACQkR0oAAAAAKA/whMAAACZCVAAANCbJdkKmNjWpKgFAGDMDgBAdwQoAAAAyhCkAKAU/QsAAEABj9YXAAAAAAAcIjhBL+w+AQBAl+xAAQBAryzKAgAzEZ4AAAAoTIACAICeCVHQA0d5AAAzMUYHAKBbAhQAAAB1CFIAcJX+AwAAoAIBCgAAgLoUwQA4Q79BT+w+AQBA1x6tLwAAAG7aFmkVF+iFwgIARxjbAAAAVCZAAQDACBQY6Mn+fhWmAOAVYxt6ZFwDAED3BCgAABjBkhQannfi2C9gfyrYz/5za+3V5wUAAAAANLCsq/VSAACG0fPg9tVRJJ++t7e++f5ZPf/8RiBEAUBK+mP6ZBwDAMAQ7EABAADXPO968Srs8O77nxaYX/3etwXpXAvWdvIAgDb0v/RMeAIAgGEIUAAAwK+zu0CcCUf0sLCseAMAwBk9jHEBAOAwAQoAAEZy5xiMV3/Ot+8d/fPgiFxHsQDQD21/DPvP4NVuYvvP6d3vAwAAA1jW1fgeAAD4i0lCe4ppAOPT37Z3pL99F3J59f3ZPlPjFQAAhiNAAQAAvGOy0J7CBMC49LNtle5jt8/33e4W38IXPexsYZwCAMBwHOEBAAAAAHVFL4xzX44j4Y4cLfLpz3KfAQDASQIUAAAAAFDHu+MgqKvHz+BIIOP5/noVpHgXrji740WPP0MAAPjKER4AAMA3Jg3tKVIA9E1fGot+9W/fjhvZ24IWfoYAAAzJDhQAAADxfTozHQA4Tj/6r0+7W7wag/gZAgAwrJ/WFwAAAMAp3mIG6MP69BV6tOx+AQDA8OxAAQAAfPPurGzaUMAAiE94IhZ9JwAAcIgdKAAAgKMUH2JYk4IcAAAAAGQnQAEAAJwhRBGHIAVAPNrleIxdAACAwwQoAACAMxSG4hGkAIjBsR0AAACdE6AAAADO8BZnXIIUAAAAAHCDAAUAAHDWkgQpIhOiAKhP2xuT8QoAAHCKAAUAAHCVokRMPheAeuz+AwAAMJBH6wsAAAAgqzUJUQDUIDgRkz4QAAC4zA4UAADAHYoUMXkjGqAsbWxMxiUAAMAtdqAAAADu2ooViknxbJ+JghLAffo5AACAwQlQAAAAjE+QAuA6wYk+6OMAAIDbHOEBAAAwD0VAAEYkPAEAAGQhQAEAAOSyJAWM6Hw+AOcInsWmXwMAALISoAAAAHJTzIhrTYqBAEdpL/tg3AEAAGTzaH0BAADAkJak8BTZ/rNReAL4m/6rD/ovAAAgOztQAAAAJSg+9cOuFAC/tIcAAAATE6AAAABK8FZofwQpgFmtT1+JzzgDAAAoQoACAAAoZUkKHD0SpABmpN0DAABAgAIAAICXFBOBkdl1ol/CmQAAQDECFAAAQGkKHX3yuQGjE57oi52tAACA4gQoAACAGhQ8+rMmx3kAY9Ku9cc4AgAAqEKAAgAAqMWbo/0SpAB6tj+uQ1vWH2MHAACgGgEKAACgNoWQfik+Ar3SdvXLZwcAAFTzaH0BAAAAdGcrZgnDAFEpuvdN/wIAADQhQAEAALSwFUYUuPq2//wUu4Ao9C0AAABc4ggPAACgJUX3cTjeA4AcjA0AAIBmBCgAAIDWFErGsPz3S4gCaEWQCwAAgFsc4QEAALSm2DWG7XMUiAFa0JeMQR8CAAA0JUABAAC0ZteCsaxJAQyoQ98xDv0GAAAQggAFAAAQwVY4UQwbg90ogJL0FWPRVwAAAGH8tL4AAACAnSUppIxkTQqdQB7r01cAAADIToACAACIRnFsPIIUQA7akfEITQIAAKEIUAAAANEopoxLkAI4S7sxLv09AAAQzqP1BQAAALywFVUUzca0/1wV0IBXtP/j0u4DAABhCVAAAACRCVKMb/tsFdSAlLT3AAAANCRAAQAAQASCFDA3wYk5aOMBAIDQBCgAAACIRJAC5iE0MRftOgAAEJ4ABQAA0ANHecxHkALGpS2fi3YcAADoxk/rCwAAADhhSQoxs1FohbF4pueizwYAALoiQAEAAEB0Cq7QvzV5lmcjPAEAAHTHER4AAAD0wJEe0BdhCQAAALpjBwoAAKBHiujz8hY7xOYZRR8NAAB0a1lXc1oAAKBrJjVzU6iDOLTHaJMBAICuOcIDAADo3VasUbibk6M9oC1tLwAAAMMQoAAAAEaxJIW8me0/e2EKqEOby0a7CwAADEGAAgAAgNHYlQLKEJjgFW0tAAAwDAEKAABgJHahYO95V4o1KfTBWdpU3tGeAgAAw1nW1TwYAAAYkskO3yj+wWtb2Eg7yjfaUQAAYCh2oAAAAEa1FXUUAHnn+d5QCIRf2k7esaMPAAAwLAEKAAAA+OP5yA+YhbAERy1PXwEAAIby0/oCAAAAClPk4Yo1KSozPvc5Z+hPAQCA4dmBAgAAmIHjPLhqu2cUDhmBNpArtH8AAMA0BCgAAICZCFJwleM96JG2DgAAAE4QoAAAAGa0JIVFrvu0K4UdK2hN20ZO2jIAAGAqAhQAAMCshCi463lXijW93uVEAZKShHYoxT0FAABMZ1lX64UAAMCUTIaoTTGSXLRflKStAgAApmUHCgAAYFZ2oKA2u1JwlbaKWrRNAADA1AQoAACAmb06bgFqcOwC32iXqE17BAAATE+AAgAA4O+ikaIlNT3vSvF8/ylozkG7Q0vaGQAAgP8s62qODgAA8MREiWgUOMejnSECbQsAAMCOHSgAAAD+pqhJRM87VRDfmhwTRGzaEgAAgCd2oAAAAHjNZInoXhXn3xVE1w+/Rx7aDHqhLQAAAHjjp/UFAAAABLUkRSZiW9O/RftX3zvye3z27efs5woAAAADsAMFAADAMSZPjOY5IOSYkD+2n8Py4nvQu5mfbQAAgK8EKAAAAM4xiWImR48JiXZEyKvrefV38Dwzg0jPJgAAQGgCFAAAAOeZSMEfS3r/PBwJX7za7eHd99/9Oc/f93zC3wQoAAAADhKgAAAAOM9ECsoQgIB8BCcAAABO+ml9AQAAAB1SlIIyhCfgviXppwAAAC4RoAAAAACAMQhOAAAA3PBofQEAAAAAwC2CEwAAABnYgQIAAAAAAAAAmJ4ABQAAwHlr6wsAgB39EgAAQAYCFAAAAAAAAADA9AQoAAAAzvGWLwAAAAAMSIACAADgnOW/XwAQhX4JAAAgAwEKAAAAAAAAAGB6AhQAAAAA0Lc1OWIKAADgNgEKAACA8xSpAIjGMR4AAAA3CVAAAAAAAAAAANMToAAAAAAAAAAApidAAQAAcI7jOwAAAABgQAIUAAAA5zhjHoCIBPwAAABuEqAAAAA4T4gCAAAAAAYjQAEAAHCet3wBAAAAYDACFAAAAADQP7sjAQAA3CRAAQAAcI7dJwAAAABgQAIUAAAAANA/AT8AAICbBCgAAAAAAAAAgOkJUAAAAAAAAAAA0xOgAAAAOGdpfQEA8IL+CQAA4CYBCgAAgHOcMQ8AAAAAAxKgAAAAAIAxCPkBAADcIEABAAAAAP0TngAAALhJgAIAAOA4xSkAIltaXwAAAEDPBCgAAAAAAAAAgOkJUAAAAAAAAAAA0xOgAAAAOM7W6AAAAAAwKAEKAACAc4QoAIhqbX0BAAAAPROgAAAAOEdxCgAAAAAGJEABAAAAAGOwSxIAAMANAhQAAADH2X0CAAAAAAYlQAEAAAAAAAAATE+AAgAAAADGYKckAACAGwQoAAAAAAAAAIDpCVAAAAAct7S+AAAAAACgDAEKAACA42yNDkBkgn4AAAA3CFAAAAAAAAAAANMToAAAAACAMazJbkkAAACXCVAAAAAcoyAFAAAAAAMToAAAAACAcSytLwAAAKBXAhQAAAAAAAAAwPQEKAAAAI7xRi8AAAAADEyAAgAAAAAAAACYngAFAADAMWvrCwCAA/RXAAAAFwlQAAAAAAAAAADTE6AAAAAAgHEsrS8AAACgVwIUAAAA39kOHQAAAAAGJ0ABAAAAAAAAAExPgAIAAOA726ED0Au7JgEAAFwkQAEAAHCMEAUAAAAADEyAAgAA4Bhv9ALQA4E/AACAiwQoAAAAAAAAAIDpCVAAAAAAAAAAANMToAAAAPjO8R0A9GJN+i0AAIBLBCgAAAAAYCxL6wsAAADokQAFAADAdwpRAAAAADA4AQoAAAAAAAAAYHoCFAAAAAAAAADA9AQoAAAAvltbXwAAnKDfAgAAuECAAgAAAAAAAACYngAFAAAAAIxlaX0BAAAAPRKgAAAA+Mw26AAAAAAwAQEKAAAA6Ie3ygEAAAAKWdbVy1QAAABfmDjRwpGwhHszjiX9+Tz2n5vPh5YErgAAAE6yAwUAAAD0a0n/FklffW//e+nD7/Pe8vTP+5/zq/AEAAAA0Bk7UAAAAHxn4kRtuQvx2z386s99vr+XN98f0au/6/PPKFcwYoafJ7EI9AAAAJz0aH0BAAAAQHGfCqnfdqt4FS54FwZY3vzeq++/+3ff/f67/+93f/beqxDEp9DEpz8LeuC+BQAAuMAOFAAAAJ+ZNNFCT8XPb7tbvAsuHP3+p//fo/+fEWhLqCniMwAAABCeAAUAAMBnJk3UouA5Nm0JLWhXAAAATvhpfQEAAACBKXhSiyLn+JbkcwYAAIDQBCgAAAA+U/AEchKkoBb3GQAAwEkCFAAAAO8tyS4UlKfICQAAABCAAAUAAMBnituU5P4CAAAACEKAAgAA4DM7UAAlOMoDAAAAghGgAAAA+EyBkxIUz4HSBAABAABOEqAAAAD4TrGbnNxLAAAAAAEJUAAAAByn8A3kJqBFKe4rAACAkwQoAAAAzlHsBErQtgAAAEBjj9YXAAAA0Kmt0OmMeY5QGOeoJWlXuE5bAwAAcIMABQAAwD2CFHyjoMkZ2hLO0L4AAABk5AgPAACAPJZkC37gPm0IR7hPAAAAChCgAAAAyE+Qgo37gCu0IRzhHgEAAMhMgAIAAKAcu1IAd2g72FuevgIAAJCZAAUAAEAdghTz8XkDuWlXAAAAChKgAAAAqEuQAjhDe4F+AwAAoJJH6wsAAACY1L4Ytja7CnJT5KSE7b7SVsxFewIAAFCZAAUAAEB7iqNjUOwE7tKOAAAANOQIDwAAgDhs0w4wL+0/AABAY3agAAAAiMfxHv1R+KQGu9WMSfsBAAAQhAAFAABAbAqmsSl80sKStAm903YAAAAE5AgPAACAPjjeA9jTHvRJWw4AABCYHSgAAAD64niPOBRBacnz3xftBQAAQAfsQAEAANAvbzLDvDz7/fBZAQAAdMIOFAAAAP2zK0V9CqJEsN2Hnvt4tBEAAAAdsgMFAADAWOxKAfPxzMehDQYAAOiYAAUAAMCYFPHyW56+AqSkbQAAABjGsq52eQQAAJiECeA9iqNE5xmvT7sAAAAwkEfrCwAAAKCardCnyHqeIik98IzXoT0AAAAYlCM8AAAA5uN4j3P8rOiNe7YMP1cAAIDB2YECAABgXvtioDfWAV5b3vwzAAAAgxGgAAAAICVb/z9TJKV3S/I836UdAAAAmIwABQAAAHuCFDAOIYrzhCYAAAAm9tP6AgAAAAhp2f2azYx/Z8blfj7GzwkAAAABCgAAAL6aNUgBI7ADxWv7du35KwAAAJMSoAAAAOCoGXalGPnvxpzc079eBSX8fAAAAPg/AQoAAACuGDFIMdrfBzYjPq9H2WUCAACAw5Z1tZMjAAAAt/U8uVRQZTY9P69neLYBAAA45dH6AgAAABjCvlA5S3EWejT687m1RaP/PQEAACjADhQAAACU0sOE0xvqzKiHZ/MszzIAAAC3/bS+AAAAAIa1JEVNiGiUZ3N5+goAAAC3CFAAAABQ2pJiFmyjXQ/U1tMz8ByWEJ4AAAAgu0frCwAAAGAqW7Gz5RECCq7QJ6EJAAAAihKgAAAAoIV9AbRmmELhFf4WIdT0jucVAACAqgQoAAAAaK1WAVcxFt5bUowQhecUAACAZgQoAAAAiCLym/BAOUITAAAAhCBAAQAAQDStjveAmTlKBwAAgOkJUAAAABBZrl0pFGzhs5I7wHj+AAAA6IIABQAAAD24WtxdLvw3MDOhJQAAAKYlQAEAAEBPzhzvsTx9BcryrAEAANA1AQoAAAB6tX9TXuEW6vPcAQAAMBQBCgAAAHqniAv5vTrKw7MGAADA0P4HXSxwDc0k/VIAAAAASUVORK5CYII=;" parent="31" vertex="1">
                    <mxGeometry x="291.05" y="36.629999999999995" width="83.39" height="32.25" as="geometry"/>
                </mxCell>
                <mxCell id="153" value="EVENEMENT DU JOUR" style="swimlane;strokeColor=#007FFF;" parent="31" vertex="1">
                    <mxGeometry x="321" y="98" width="180" height="142" as="geometry"/>
                </mxCell>
                <mxCell id="154" value="VOL N° xxx" style="text;html=1;strokeColor=none;fillColor=none;align=center;verticalAlign=middle;whiteSpace=wrap;rounded=0;" parent="153" vertex="1">
                    <mxGeometry x="-1" y="22" width="86" height="30" as="geometry"/>
                </mxCell>
                <mxCell id="155" value="APPAREIL : xxx" style="text;html=1;strokeColor=none;fillColor=none;align=center;verticalAlign=middle;whiteSpace=wrap;rounded=0;" parent="153" vertex="1">
                    <mxGeometry x="-8.5" y="52" width="125" height="30" as="geometry"/>
                </mxCell>
                <mxCell id="156" value="HORAIRES : de xxhxx à xxhxx" style="text;html=1;align=center;verticalAlign=middle;resizable=0;points=[];autosize=1;strokeColor=none;fillColor=none;" parent="153" vertex="1">
                    <mxGeometry x="1" y="82" width="180" height="20" as="geometry"/>
                </mxCell>
                <mxCell id="157" value="ANNULER" style="rounded=1;whiteSpace=wrap;html=1;strokeColor=red;" parent="153" vertex="1">
                    <mxGeometry x="40" y="112" width="100" height="20" as="geometry"/>
                </mxCell>
                <mxCell id="158" value="PLANNING" style="swimlane;strokeColor=#007FFF;" parent="31" vertex="1">
                    <mxGeometry x="321" y="260" width="180" height="200" as="geometry"/>
                </mxCell>
                <mxCell id="159" value="" style="shape=table;startSize=0;container=1;collapsible=0;childLayout=tableLayout;strokeColor=#007FFF;" parent="158" vertex="1">
                    <mxGeometry x="11" y="50" width="159" height="120" as="geometry"/>
                </mxCell>
                <mxCell id="160" value="" style="shape=partialRectangle;collapsible=0;dropTarget=0;pointerEvents=0;fillColor=none;top=0;left=0;bottom=0;right=0;points=[[0,0.5],[1,0.5]];portConstraint=eastwest;strokeColor=#007FFF;" parent="159" vertex="1">
                    <mxGeometry width="159" height="40" as="geometry"/>
                </mxCell>
                <mxCell id="161" value="jj/mm/AAA" style="shape=partialRectangle;html=1;whiteSpace=wrap;connectable=0;overflow=hidden;fillColor=none;top=0;left=0;bottom=0;right=0;pointerEvents=1;strokeColor=#007FFF;" parent="160" vertex="1">
                    <mxGeometry width="159" height="40" as="geometry">
                        <mxRectangle width="159" height="40" as="alternateBounds"/>
                    </mxGeometry>
                </mxCell>
                <mxCell id="162" value="" style="shape=partialRectangle;collapsible=0;dropTarget=0;pointerEvents=0;fillColor=none;top=0;left=0;bottom=0;right=0;points=[[0,0.5],[1,0.5]];portConstraint=eastwest;strokeColor=#007FFF;" parent="159" vertex="1">
                    <mxGeometry y="40" width="159" height="40" as="geometry"/>
                </mxCell>
                <mxCell id="163" value="jj/mm/AAA" style="shape=partialRectangle;html=1;whiteSpace=wrap;connectable=0;overflow=hidden;fillColor=none;top=0;left=0;bottom=0;right=0;pointerEvents=1;strokeColor=#007FFF;" parent="162" vertex="1">
                    <mxGeometry width="159" height="40" as="geometry">
                        <mxRectangle width="159" height="40" as="alternateBounds"/>
                    </mxGeometry>
                </mxCell>
                <mxCell id="164" value="" style="shape=partialRectangle;collapsible=0;dropTarget=0;pointerEvents=0;fillColor=none;top=0;left=0;bottom=0;right=0;points=[[0,0.5],[1,0.5]];portConstraint=eastwest;strokeColor=#007FFF;" parent="159" vertex="1">
                    <mxGeometry y="80" width="159" height="40" as="geometry"/>
                </mxCell>
                <mxCell id="165" value="jj/mm/AAA" style="shape=partialRectangle;html=1;whiteSpace=wrap;connectable=0;overflow=hidden;fillColor=none;top=0;left=0;bottom=0;right=0;pointerEvents=1;strokeColor=#007FFF;" parent="164" vertex="1">
                    <mxGeometry width="159" height="40" as="geometry">
                        <mxRectangle width="159" height="40" as="alternateBounds"/>
                    </mxGeometry>
                </mxCell>
                <mxCell id="58" value="" style="endArrow=none;html=1;exitX=0;exitY=0.25;exitDx=0;exitDy=0;entryX=1;entryY=0.25;entryDx=0;entryDy=0;fillColor=#6666FF;" parent="125" edge="1">
                    <mxGeometry width="50" height="50" relative="1" as="geometry">
                        <mxPoint y="81" as="sourcePoint"/>
                        <mxPoint x="660" y="81" as="targetPoint"/>
                    </mxGeometry>
                </mxCell>
                <mxCell id="129" value="PROGRAMMER UN VOL&#10;formulaire" style="swimlane;strokeColor=#007FFF;" parent="150" vertex="1">
                    <mxGeometry x="131" y="537" width="280" height="290" as="geometry">
                        <mxRectangle x="240" y="280" width="150" height="23" as="alternateBounds"/>
                    </mxGeometry>
                </mxCell>
                <mxCell id="139" value="selectionner une date" style="rounded=1;whiteSpace=wrap;html=1;strokeColor=#007FFF;" parent="129" vertex="1">
                    <mxGeometry x="70" y="56" width="140" height="30" as="geometry"/>
                </mxCell>
                <mxCell id="144" value="choisir appareil" style="rounded=1;whiteSpace=wrap;html=1;strokeColor=#007FFF;" parent="129" vertex="1">
                    <mxGeometry x="80" y="196" width="120" height="30" as="geometry"/>
                </mxCell>
                <mxCell id="146" value="VALIDER" style="rounded=1;whiteSpace=wrap;html=1;strokeColor=GREEN;" parent="129" vertex="1">
                    <mxGeometry x="149" y="253" width="110" height="30" as="geometry"/>
                </mxCell>
                <mxCell id="147" value="heure de départ" style="rounded=1;whiteSpace=wrap;html=1;strokeColor=#007FFF;" parent="129" vertex="1">
                    <mxGeometry x="70" y="106" width="140" height="30" as="geometry"/>
                </mxCell>
                <mxCell id="373" value="ANNULER" style="rounded=1;whiteSpace=wrap;html=1;strokeColor=RED;" parent="129" vertex="1">
                    <mxGeometry x="19" y="253" width="110" height="30" as="geometry"/>
                </mxCell>
                <mxCell id="148" style="edgeStyle=none;html=1;exitX=0;exitY=0.5;exitDx=0;exitDy=0;entryX=0.5;entryY=0;entryDx=0;entryDy=0;fillColor=#6666FF;" parent="150" source="76" target="129" edge="1">
                    <mxGeometry relative="1" as="geometry">
                        <Array as="points">
                            <mxPoint x="271" y="354"/>
                        </Array>
                    </mxGeometry>
                </mxCell>
                <mxCell id="327" value="EVENEMENT" style="swimlane;strokeColor=#007FFF;" parent="150" vertex="1">
                    <mxGeometry x="457" y="537" width="191" height="323" as="geometry"/>
                </mxCell>
                <mxCell id="328" value="VOL N° xxx" style="text;html=1;strokeColor=none;fillColor=none;align=center;verticalAlign=middle;whiteSpace=wrap;rounded=0;" parent="327" vertex="1">
                    <mxGeometry x="-1" y="22" width="181" height="30" as="geometry"/>
                </mxCell>
                <mxCell id="329" value="APPAREIL : xxx" style="text;html=1;strokeColor=none;fillColor=none;align=center;verticalAlign=middle;whiteSpace=wrap;rounded=0;" parent="327" vertex="1">
                    <mxGeometry y="82" width="180" height="30" as="geometry"/>
                </mxCell>
                <mxCell id="330" value="DEPART : xxHxx" style="text;html=1;align=center;verticalAlign=middle;resizable=0;points=[];autosize=1;strokeColor=none;fillColor=none;" parent="327" vertex="1">
                    <mxGeometry x="34.5" y="147" width="110" height="20" as="geometry"/>
                </mxCell>
                <mxCell id="331" value="ANNULER" style="rounded=1;whiteSpace=wrap;html=1;strokeColor=red;" parent="327" vertex="1">
                    <mxGeometry x="41" y="279" width="100" height="20" as="geometry"/>
                </mxCell>
                <mxCell id="332" value="PILOTE : xxxxx" style="text;html=1;strokeColor=none;fillColor=none;align=center;verticalAlign=middle;whiteSpace=wrap;rounded=0;" parent="327" vertex="1">
                    <mxGeometry x="-1" y="52" width="181" height="30" as="geometry"/>
                </mxCell>
                <mxCell id="333" value="ARRIVEE : xxHxx" style="text;html=1;align=center;verticalAlign=middle;resizable=0;points=[];autosize=1;strokeColor=none;fillColor=none;" parent="327" vertex="1">
                    <mxGeometry x="34.5" y="178" width="110" height="20" as="geometry"/>
                </mxCell>
                <mxCell id="335" value="DATE : jj/mm/AAA" style="text;html=1;strokeColor=none;fillColor=none;align=center;verticalAlign=middle;whiteSpace=wrap;rounded=0;" parent="327" vertex="1">
                    <mxGeometry x="1" y="112" width="180" height="30" as="geometry"/>
                </mxCell>
                <mxCell id="485" value="NOMBRE D'HEURES : xx" style="text;html=1;strokeColor=none;fillColor=none;align=center;verticalAlign=middle;whiteSpace=wrap;rounded=0;" parent="327" vertex="1">
                    <mxGeometry x="-9" y="203" width="200" height="30" as="geometry"/>
                </mxCell>
                <mxCell id="486" value="PRIX : xxx.xx" style="text;html=1;strokeColor=none;fillColor=none;align=center;verticalAlign=middle;whiteSpace=wrap;rounded=0;" parent="327" vertex="1">
                    <mxGeometry x="-10.5" y="233" width="200" height="30" as="geometry"/>
                </mxCell>
                <mxCell id="336" style="edgeStyle=none;html=1;entryX=0.5;entryY=0;entryDx=0;entryDy=0;fillColor=#6666FF;exitX=0;exitY=0.5;exitDx=0;exitDy=0;" parent="150" source="160" target="327" edge="1">
                    <mxGeometry relative="1" as="geometry">
                        <Array as="points">
                            <mxPoint x="552" y="330"/>
                        </Array>
                    </mxGeometry>
                </mxCell>
                <mxCell id="314" value="" style="group" parent="150" vertex="1" connectable="0">
                    <mxGeometry x="182" y="1080" width="280" height="220" as="geometry"/>
                </mxCell>
                <mxCell id="315" value="" style="group" parent="314" vertex="1" connectable="0">
                    <mxGeometry width="280" height="220" as="geometry"/>
                </mxCell>
                <mxCell id="324" value="" style="group" parent="315" vertex="1" connectable="0">
                    <mxGeometry width="280" height="220" as="geometry"/>
                </mxCell>
                <mxCell id="316" value="" style="rounded=0;whiteSpace=wrap;html=1;strokeColor=#007FFF;" parent="324" vertex="1">
                    <mxGeometry width="280" height="220" as="geometry"/>
                </mxCell>
                <mxCell id="318" value="VALIDER" style="rounded=1;whiteSpace=wrap;html=1;strokeColor=green;" parent="324" vertex="1">
                    <mxGeometry x="157" y="173" width="110" height="30" as="geometry"/>
                </mxCell>
                <mxCell id="319" value="ANNULER" style="rounded=1;whiteSpace=wrap;html=1;strokeColor=red;" parent="324" vertex="1">
                    <mxGeometry x="13" y="173" width="110" height="30" as="geometry"/>
                </mxCell>
                <mxCell id="323" value="" style="group" parent="324" vertex="1" connectable="0">
                    <mxGeometry x="80" y="20" width="120" height="128" as="geometry"/>
                </mxCell>
                <mxCell id="317" value="ANCIEN MOT DE PASSE" style="rounded=1;whiteSpace=wrap;html=1;strokeColor=#007FFF;" parent="323" vertex="1">
                    <mxGeometry width="120" height="30" as="geometry"/>
                </mxCell>
                <mxCell id="321" value="NOUVEAU" style="rounded=1;whiteSpace=wrap;html=1;strokeColor=#007FFF;" parent="323" vertex="1">
                    <mxGeometry y="48" width="120" height="30" as="geometry"/>
                </mxCell>
                <mxCell id="322" value="CONFIRMER" style="rounded=1;whiteSpace=wrap;html=1;strokeColor=#007FFF;" parent="323" vertex="1">
                    <mxGeometry y="98" width="120" height="30" as="geometry"/>
                </mxCell>
                <mxCell id="320" style="edgeStyle=none;html=1;fillColor=#6666FF;" parent="314" edge="1">
                    <mxGeometry relative="1" as="geometry">
                        <mxPoint x="140" as="targetPoint"/>
                    </mxGeometry>
                </mxCell>
                <mxCell id="325" style="edgeStyle=none;html=1;exitX=1;exitY=0.5;exitDx=0;exitDy=0;fillColor=#6666FF;entryX=0.5;entryY=0;entryDx=0;entryDy=0;" parent="150" source="313" target="316" edge="1">
                    <mxGeometry relative="1" as="geometry">
                        <mxPoint x="471" y="1080" as="targetPoint"/>
                        <Array as="points">
                            <mxPoint x="321" y="867"/>
                        </Array>
                    </mxGeometry>
                </mxCell>
                <mxCell id="152" value="" style="group" parent="1" vertex="1" connectable="0">
                    <mxGeometry x="-1129" y="1360" width="280" height="120" as="geometry"/>
                </mxCell>
                <mxCell id="124" value="" style="group" parent="152" vertex="1" connectable="0">
                    <mxGeometry width="280" height="120" as="geometry"/>
                </mxCell>
                <mxCell id="119" value="" style="rounded=0;whiteSpace=wrap;html=1;strokeColor=#007FFF;" parent="124" vertex="1">
                    <mxGeometry width="280" height="120" as="geometry"/>
                </mxCell>
                <mxCell id="120" value="MOT DE PASSE" style="rounded=1;whiteSpace=wrap;html=1;strokeColor=#007FFF;" parent="124" vertex="1">
                    <mxGeometry x="80" y="20" width="120" height="30" as="geometry"/>
                </mxCell>
                <mxCell id="121" value="SUPPRIMER" style="rounded=1;whiteSpace=wrap;html=1;strokeColor=red;" parent="124" vertex="1">
                    <mxGeometry x="157" y="70" width="110" height="30" as="geometry"/>
                </mxCell>
                <mxCell id="122" value="ANNULER" style="rounded=1;whiteSpace=wrap;html=1;strokeColor=GREEN;" parent="124" vertex="1">
                    <mxGeometry x="13" y="70" width="110" height="30" as="geometry"/>
                </mxCell>
                <mxCell id="151" style="edgeStyle=none;html=1;fillColor=#6666FF;" parent="152" source="118" edge="1">
                    <mxGeometry relative="1" as="geometry">
                        <mxPoint x="140" as="targetPoint"/>
                    </mxGeometry>
                </mxCell>
                <mxCell id="167" value="" style="group" parent="1" vertex="1" connectable="0">
                    <mxGeometry x="570" y="331" width="990" height="1524" as="geometry"/>
                </mxCell>
                <mxCell id="179" value="" style="group" parent="167" vertex="1" connectable="0">
                    <mxGeometry x="320" width="663.5" height="490" as="geometry"/>
                </mxCell>
                <mxCell id="180" value="TABLEAU DE BORD" style="swimlane;strokeColor=#007FFF;" parent="179" vertex="1">
                    <mxGeometry y="7" width="663.5" height="490" as="geometry">
                        <mxRectangle x="240" y="280" width="150" height="23" as="alternateBounds"/>
                    </mxGeometry>
                </mxCell>
                <mxCell id="181" value="ADMINISTRATION" style="text;html=1;strokeColor=none;fillColor=none;align=center;verticalAlign=middle;whiteSpace=wrap;rounded=0;" parent="180" vertex="1">
                    <mxGeometry x="10" y="36.5" width="110" height="30" as="geometry"/>
                </mxCell>
                <mxCell id="185" value="CALENDRIER" style="shape=table;startSize=30;container=1;collapsible=0;childLayout=tableLayout;fontStyle=1;align=center;pointerEvents=1;strokeColor=#007FFF;" parent="180" vertex="1">
                    <mxGeometry x="20" y="98" width="260" height="220" as="geometry"/>
                </mxCell>
                <mxCell id="186" value="" style="shape=partialRectangle;html=1;whiteSpace=wrap;collapsible=0;dropTarget=0;pointerEvents=0;fillColor=none;top=0;left=0;bottom=0;right=0;points=[[0,0.5],[1,0.5]];portConstraint=eastwest;strokeColor=#007FFF;" parent="185" vertex="1">
                    <mxGeometry y="30" width="260" height="63" as="geometry"/>
                </mxCell>
                <mxCell id="187" value="" style="shape=partialRectangle;html=1;whiteSpace=wrap;connectable=0;fillColor=none;top=0;left=0;bottom=0;right=0;overflow=hidden;pointerEvents=1;strokeColor=#007FFF;" parent="186" vertex="1">
                    <mxGeometry width="87" height="63" as="geometry">
                        <mxRectangle width="87" height="63" as="alternateBounds"/>
                    </mxGeometry>
                </mxCell>
                <mxCell id="188" value="" style="shape=partialRectangle;html=1;whiteSpace=wrap;connectable=0;fillColor=none;top=0;left=0;bottom=0;right=0;overflow=hidden;pointerEvents=1;strokeColor=#007FFF;" parent="186" vertex="1">
                    <mxGeometry x="87" width="86" height="63" as="geometry">
                        <mxRectangle width="86" height="63" as="alternateBounds"/>
                    </mxGeometry>
                </mxCell>
                <mxCell id="189" value="" style="shape=partialRectangle;html=1;whiteSpace=wrap;connectable=0;fillColor=none;top=0;left=0;bottom=0;right=0;overflow=hidden;pointerEvents=1;strokeColor=#007FFF;" parent="186" vertex="1">
                    <mxGeometry x="173" width="87" height="63" as="geometry">
                        <mxRectangle width="87" height="63" as="alternateBounds"/>
                    </mxGeometry>
                </mxCell>
                <mxCell id="190" value="" style="shape=partialRectangle;html=1;whiteSpace=wrap;collapsible=0;dropTarget=0;pointerEvents=0;fillColor=none;top=0;left=0;bottom=0;right=0;points=[[0,0.5],[1,0.5]];portConstraint=eastwest;strokeColor=#007FFF;" parent="185" vertex="1">
                    <mxGeometry y="93" width="260" height="64" as="geometry"/>
                </mxCell>
                <mxCell id="191" value="" style="shape=partialRectangle;html=1;whiteSpace=wrap;connectable=0;fillColor=none;top=0;left=0;bottom=0;right=0;overflow=hidden;pointerEvents=1;strokeColor=#007FFF;" parent="190" vertex="1">
                    <mxGeometry width="87" height="64" as="geometry">
                        <mxRectangle width="87" height="64" as="alternateBounds"/>
                    </mxGeometry>
                </mxCell>
                <mxCell id="192" value="" style="shape=partialRectangle;html=1;whiteSpace=wrap;connectable=0;fillColor=none;top=0;left=0;bottom=0;right=0;overflow=hidden;pointerEvents=1;strokeColor=#007FFF;" parent="190" vertex="1">
                    <mxGeometry x="87" width="86" height="64" as="geometry">
                        <mxRectangle width="86" height="64" as="alternateBounds"/>
                    </mxGeometry>
                </mxCell>
                <mxCell id="193" value="" style="shape=partialRectangle;html=1;whiteSpace=wrap;connectable=0;fillColor=none;top=0;left=0;bottom=0;right=0;overflow=hidden;pointerEvents=1;strokeColor=#007FFF;" parent="190" vertex="1">
                    <mxGeometry x="173" width="87" height="64" as="geometry">
                        <mxRectangle width="87" height="64" as="alternateBounds"/>
                    </mxGeometry>
                </mxCell>
                <mxCell id="194" value="" style="shape=partialRectangle;html=1;whiteSpace=wrap;collapsible=0;dropTarget=0;pointerEvents=0;fillColor=none;top=0;left=0;bottom=0;right=0;points=[[0,0.5],[1,0.5]];portConstraint=eastwest;strokeColor=#007FFF;" parent="185" vertex="1">
                    <mxGeometry y="157" width="260" height="63" as="geometry"/>
                </mxCell>
                <mxCell id="195" value="" style="shape=partialRectangle;html=1;whiteSpace=wrap;connectable=0;fillColor=none;top=0;left=0;bottom=0;right=0;overflow=hidden;pointerEvents=1;strokeColor=#007FFF;" parent="194" vertex="1">
                    <mxGeometry width="87" height="63" as="geometry">
                        <mxRectangle width="87" height="63" as="alternateBounds"/>
                    </mxGeometry>
                </mxCell>
                <mxCell id="196" value="" style="shape=partialRectangle;html=1;whiteSpace=wrap;connectable=0;fillColor=none;top=0;left=0;bottom=0;right=0;overflow=hidden;pointerEvents=1;strokeColor=#007FFF;" parent="194" vertex="1">
                    <mxGeometry x="87" width="86" height="63" as="geometry">
                        <mxRectangle width="86" height="63" as="alternateBounds"/>
                    </mxGeometry>
                </mxCell>
                <mxCell id="197" value="" style="shape=partialRectangle;html=1;whiteSpace=wrap;connectable=0;fillColor=none;top=0;left=0;bottom=0;right=0;overflow=hidden;pointerEvents=1;strokeColor=#007FFF;" parent="194" vertex="1">
                    <mxGeometry x="173" width="87" height="63" as="geometry">
                        <mxRectangle width="87" height="63" as="alternateBounds"/>
                    </mxGeometry>
                </mxCell>
                <UserObject label="%date{ddd mmm dd yyyy HH:MM:ss}%" placeholders="1" id="200">
                    <mxCell style="text;html=1;strokeColor=none;fillColor=none;align=center;verticalAlign=middle;whiteSpace=wrap;overflow=hidden;" parent="180" vertex="1">
                        <mxGeometry x="503.5" y="36.63" width="160" height="20" as="geometry"/>
                    </mxCell>
                </UserObject>
                <mxCell id="201" value="" style="shape=image;verticalLabelPosition=bottom;labelBackgroundColor=#ffffff;verticalAlign=top;aspect=fixed;imageAspect=0;image=data:image/png,iVBORw0KGgoAAAANSUhEUgAACFAAAAM3CAYAAAAQyzaXAAAACXBIWXMAAB7CAAAewgFu0HU+AABDnUlEQVR4nO3d2XLcOBIFUFBR///LnAc3R3S5Fi5YEsA5EQ71yN0eWkViy0tgWdc1AQAAwICeJ7xLk6sAAAAAoAuP1hcAAAAAmb17U2D7viAF5COoBAAAwDAEKAAAAOjZlW0VBSngmjX9PjeCSgAAAAznp/UFAAAAwEnr09c7f45zLeG8I8+N5wsAAIDuLOtqLgsAAEB4pSav3pKHY3I+g547AAAAQnKEBwAAABHtjwGQ/Ie2cj+D+z9PmAIAAIAwHOEBAABABPtjOdYX3y/9/wu8VzLk4KgPAAAAwnCEBwAAAK1Fmph6Gx7+VfsZ9RwCAADQhCM8AAAAqGlNcY/lULSFf7V4VvdH+AAAAEA1jvAAAACgtPXNVyCuCEdrRLgGAAAAJuIIDwAAAErqcdLprXdmF/m59XwCAABQjCM8AAAAyC1y8fUIxwdAXJ5PAAAAihGgAAAA4K7eAxPAr16eZ0EKAAAAshOgAAAA4IpeiqzA2PZtkTAFAAAAtwhQAAAAcNYs4QmFWWbT+7NtVwoAAABuEaAAAADgqN6Lq3esSVGWcY32bAs/AQAAcIkABQAAAJ+MVli9ShGWUY3+jNuVAgAAgMMEKAAAAHg2ekH1CjtQQN8EKQAAAPhKgAIAAICUhCaOEKKA/jneAwAAgLcEKAAAAOYmOHGOt9gZgef+D88zAAAAfxGgAAAAmMfzm9eKqDAfz/2/BCkAAABIKQlQAAAAzEoRFebjuf/M8R4AAACTE6AAAAAYn6Jpft5Yh7F5xgEAACYkQAEAADAuwYny1qTASh+0B9fYlQIAAGAiAhQAAABjUSQFKMOuFAAAAIP7aX0BAAAAZCE40Y6fPdG5R/Nak58pAADAkJZ1Nd8DAADonIldHN5MJxJtQz2efQAAgAE4wgMAAKBPCqMxrUkhlRi0EXU53gMAAGAAAhQAAAD9UBCNT/EU5iZIAQAA0LGf1hcAAAAAAxFyAVL60xZsvwAAAOiEHSgAAABiU3zrj2M8aE27EYtdKQAAADohQAEAABCP4mf/FExpQdsRm3YBAAAgOAEKAACAGBQ+gTu0If3Yf1bCFAAAAIH8tL4AAAAAFD4BJrUmfQAAAEAYdqAAAABoR9FsfLbspwZtSf/sSgEAABCAHSgAAADaUPCci8+b3Nanr4zDrhQAAACNCFAAAADUo+AJ5KQtGZsgBQAAQGXLupqHAQAAVGDyRUq25icP7cm8tCEAAAAFPVpfAAAAwOAUOtnb7gdFUOAKbQgAAEBBjvAAAAAoR3iCd9wbXOXeISXHewAAABQhQAEAAJCfwhbfeHscyEFfAwAAkJEABQAAQD6CExzlPuEK9w2vuC8AAAAyebS+AAAAgE4pWHHXdg/ZjYJv1uQ+4bN9n+ReAQAAuMgOFAAAANCWnUv4ZH36Ct9oUwAAAC4SoAAAADhPYYrcvDEO5CZIAQAAcJIABQAAALSnyMkr7gtyEKQAAAA4SIACAAAAYlDkZM+9QE52uQEAADhAgAIAAOAcRU1Kc4/hHiA39xQAAMABAhQAAADneIuX0txjc1PophT3FgAAwBcCFAAAAOcpcFOSozzm5XMHAACAhgQoAAAAzlPkpAZBCgAAAICKBCgAAAAgNiGKOficqcF9BgAA8IEABQAAAMTmyBgAAACACgQoAAAAzlPQZlaf3l5//r2zR5Cs6d//5tX3vl3Pt/8mkvXpKwAAANDQsq7m6AAAABeYTFFbyeDOdj8//388f39/3y8v/r1alhf/n6++t/+9zbu/QwvaEWprfc8DAACEJkABAABwjckULVwpfq4v/rv999zL7wMZz3KGL/zcaUGAAgAA4INH6wsAAADokMInUZ3ZIcJ9/Ovbz2cLWOyDFp927VCkBgAAgA7ZgQIAAOA6EypaaHl0Bp9d2ckCahHsAQAA+MIOFAAAANAXxfe4Pu1k4cgUAAAACO6n9QUAAAB0ShEUOGNN2g3acv8BAAB8IUABAAAAAAAAAExPgAIAAAAAAAAAmJ4ABQAAAACMb2l9AQAAANEJUAAAAAAAAAAA0xOgAAAAuMabvAD0Qp8FAABwgAAFAADANWvrCwAAAAAA8hGgAAAAAICxCf0BAAAcIEABAAAAAAAAAExPgAIAAOAa58kDAAAAwEAEKAAAAK4TogAAAACAQQhQAAAAXOdMeQB6IPAHAABwgAAFAAAAAAAAADA9AQoAAAAAAAAAYHoCFAAAAAAwNkdOAQAAHCBAAQAAcJ0z5QEAAABgEAIUAAAA13mjFwAAAAAGIUABAAAAAAAAAExPgAIAAAAAxubIKQAAgAMEKAAAAAAAAACA6QlQAAAAXOeNXgAAAAAYhAAFAAAAAAAAADA9AQoAAIDr1tYXAAAH6K8AAAAOEKAAAAAAgLE5cgoAAOAAAQoAAAAAAAAAYHoCFAAAAAAAAADA9AQoAAAArrMlOgDR6asAAAAOEqAAAAAAAAAAAKYnQAEAAAAAY7L7BAAAwAkCFAAAAAAwprX1BQAAAPREgAIAAOC6NXm7FwAAAACGIEABAABwnfAEAAAAAAxCgAIAAOAe26MDAAAAwAAEKAAAAAAAAACA6QlQAAAAAMCYHDUFAABwggAFAADAPYpTAAAAADAAAQoAAAAAGNP63y8AAAAOEKAAAAC4R2EKAAAAAAYgQAEAAAAA43LUFAAAwEECFAAAAAAAAADA9AQoAAAAAGBMdp8AAAA4QYACAADgHsUpAAAAABiAAAUAAAAAAAAAMD0BCgAAAAAAAABgegIUAAAAADCmtfUFAAAA9ESAAgAAAAAAAACYngAFAADAfUvrCwCAF/RPAAAAJwhQAAAA3GeLdAAAAADonAAFAAAAAAAAADA9AQoAAAAAGI/jOwAAAE4SoAAAAACA8TheCgAA4CQBCgAAgPu85QsAAAAAnROgAAAAAAAAAACmJ0ABAAAAAAAAAExPgAIAAOA+58wDEI3jpQAAAE4SoAAAAAAAAAAApidAAQAAcJ+3fAGIRL8EAABwgQAFAAAAAIzF0VIAAAAXCFAAAAAAwHiEKAAAAE4SoAAAAAAAAAAApidAAQAAAAAAAABMT4ACAAAgj6X1BQDAjn4JAADgJAEKAACA+5wzD0AkwhMAAAAXCFAAAADcsz59BYDW9EkAAAAXCFAAAABcp0AFQER2oAAAALhAgAIAAOCcdfcLeO9KAffVf6MQDAAAAFSxrKs1PwAAgBNMopjZkv48A9vX599Lu9/fW1/8e8+/9+r7R/6cd8/kt9+HWQghAQAAHCRAAQAA8J2JE7N4DkbsC6+vAg255Pyz3/1Zn/5eMANBCgAAgC8EKAAAAL4zcaJ3n4IRKZUNR/Ti3e4Wr3bbgJ7N/qwDAAC8JUABAADwmUkTvam1a8SMXrUHAhb0SLsAAADwwk/rCwAAAAhKQZSongufy9OvT/8u97z7+b762UNU7lUAAIA37EABAADwLxMlotl2OVD47Mf++I/9kSAQhfYEAADgiQAFAADAv0yUaGlfdBeaGJM2hmi0MwAAAEmAAgAAYGNyRCv73QkUMeej7SEK7Q8AADC9R+sLAAAAgAm9KlQqXs7p1fEejvygBSEuAABgegIUAADA7BQoKU1BkiO+hWq0VQAAAFDYT+sLAAAAgAEtSXCCvNxTAAAAUNiyrl5gAAAApmMiRG4K27SiPaMEbRoAADAlR3gAAADAeYqLRLHdi4IU5LTdT9o6AABgKo7wAAAAZqPIyFWOUCCy5/vT/UoOa9JvAgAAE7EDBQAAMAsFIK549Xa/ojSRfbpntYMAAADwgR0oAACAGSgactTy9PX5+9CL/Q4U2y4CdqUAAACAD5Z1tY4IAAAMz8SHT5b0W1yGkX26z7WTHKGdBAAAhmYHCgAAYFTr01f4RFGQGXy6z+1OwRHbbiYAAABDerS+AAAAgIIUeXhHoRhe2z8b2lDesWsPAAAwJAEKAABgNAp+vKPYB+dsz4x2FQAAgCkIUAAAADAyoQm4T5CCV7b7QTsLAAAMQ4ACAAAYgaIee4p5UIbjPXhFkAIAABiGAAUAAACjULyDeuxKwTNBCgAAoHs/rS8AAADgJsU7UlKwg1aW5Pnjb/plAACgW3agAAAAoFeKthCH4z3YaJsBAIBuCVAAAAA9Upybl8IcxOd4j7mtSVsNAAB0yhEeAAAA9EAxDvrjeI95rUmABgAA6JAABQAAANEtT1+BvixJmGJWQhQAAEBXHOEBAAD0YtsSXDFmDgqtMCbHewAAABDWsq7mqwAAQHgmLvMQnID5aOPHp20HAAC64AgPAAAAolBggzl59se3JkEZAACgA47wAAAAolNwGZ/iKeBojzlsn692HwAACEmAAgAAiEoRbWyKZ8ArS9L+z2BN+gEAACAgR3gAAAARKZ6NS8EM+GbZ/WJMPlsAACAkAQoAACAa4YlxLU9fAV5almXbiUKQYkxr0t8DAAABLetqrgIAAIRikjIexU/gKn3CHPQTAABACI/WFwAAALCjUDYOxTAgh60t0T+MbdttBAAAoClHeAAAABEojAHwiaM8xuazBQAAQnCEBwAA0JpJyTgUwICa9B9j0YcAAADN2YECAACAHJakmAnUZVeKsehDAACA5uxAAQAAtGRCMgYFTCACfco49CsAAEATj9YXAAAAQLcUuIBItjZJkAIAAIBLBCgAAIDaFLb6JjQBRLdvp/Q5AAAAHPbT+gIAAADohvAE0Jslabt6tCbhFwAAoAEBCgAAoCbFkH4pQAK90vf0S5ACAACoSoACAACAT7y9DfROG9Y/IQoAAKAKAQoAAKAWxY9+LE9fAXonDAYAAMBXj9YXAAAADE1ool8KjcCItrZN/9Sf7TPTPwEAAMXYgQIAAIA9hSlgBkuyK0WvhF8AAIBi7EABAACUosDRF0VEYFZ2peiL/goAACjGDhQAAAAoRgHYkaIXgi4AAEAxdqAAAABKUNyIT5EQgF6tST8GAAAUYAcKAAAAAPilMN+HNQlsAgAAmdmBAgAAyEkhIz6FQYDvlqRPAwAAmI4ABQAAkItCEwAj2QfO9HEAAAATEKAAAACYg50nAK7b2lBBini2z0Q/BwAA3PbT+gIAAIAhKCjFpqgEkIf2NK41GY8AAAA3CVAAAABXKVLEtyTFPoDctKsAAACDcoQHAABwxZr+FJCEKGJS3AMoR98HAAAwKDtQAAAAVykgxWPHCYDytLOxOcoDAAC4TIACAABgDAp6APUIrMUnRAEAAJzmCA8AAOAsBQkA+GMfotA/AgAAdE6AAgAAOENxKBZvPwPEsbXJ+koAAIBOOcIDAAAAAPIQnohlffoKAADwkQAFAAAAAORhZ6B4hCcAAIDDBCgAAICjFCBiWJ6+AhDLkrTRAAAAXXq0vgAAACA8wYk4hCcA+rG11fpRAACATtiBAgCAGSlkHOdnFYfQBECf7EgRw5qMawAAgC/sQAEAwMj2i+T7t0CX9O8C+qu3RBU7AADGso0FAQAA/rGsq+A1AABDyjnQPRquGC18YbLQ3gj3EQC/9K3t6VsBAIC37EABAADfvSp2fCuAPIcp3u14sf/3LegDwNhehTKpa/vZG3cBAAD/sAMFAAAj6mmQeyRckdLfR48sT99/99/c0dPPcFQKOwDj09+2p78FAAD+T4ACAIDRzDTAPRu+eP7et/+GdhRzAOahz21LnwsAAPyfAAUAACMxuP3uVehi//13v08dijgAc9L3tqPv/deV8C0AAAxBgAIAgJEY3NI7BQmAuRi7xNBz//su7PApAJHS+53Mzt6TPf/sAADgHwIUAACMwsCWXu13/wBgTsYxMUTpi9+NC553gcgRgMglys8OAABuEaAAAGAUBrb0SLEBgD3jmXaO9Mmfgg1nd4FYXnyvd8Y1AAB079H6AgAAIIORFp4BgHmNWFTv1T4A8fzPm/2OD68+s0+f42ifsfAEAABDsAMFAAAjMKilRwoNALxiXNNWy2MwemdsAwBA935aXwAAAAAA8H+K0G0JTwAAwMQEKAAA6J1FbnqjMAbAN8vuF/TCuBwAgO49Wl8AAADAJJY3/wwAn2x9huI0AABAYXagAACgZwoJAAAQh/E5AABdE6AAAAAoz44TAMAshCgAAOiWIzwAAOiVhVl6IDgBQC6O8qAXxj8AAHTLDhQAAABlKB4AUMKS9DHEtiZBHwAAOiVAAQAAAABAbkIUAAB0R4ACAIAeWYwFAGZmLEQP7JQCAEB3BCgAAADyUzAAoCT9DD1wlAcAAN15tL4AAAA4ySIskSloAVDL1ucYGwEAAGRiBwoAAIA8hCcAaGFJ+iAAAIAsBCgAAADuU7gCAAAAgM4JUAAA0BNbVAMAQF/WZBwPAEAnBCgAAOiFRVeisvsEABE4ygMAAOAmAQoAAIDzFKkAiEofBQAAcJEABQAAAAAApTnKAwCA8AQoAADogYVWIlne/DMARKKPAgAAOEmAAgAAAADGJERBNO5JAABCE6AAACA6u08AAFynYE0kxvYAAIT2aH0BAAAAHVB8AgDIY03GVgAABGUHCgAAAAAAAABgegIUAABEZotfIvCGJAC9W5L+jFiM8wEACEmAAgAAAADmIEhBJEIUAACEI0ABAEBUFlSJQJEJAKAM4ywAAMIRoAAAAAAAoDaBaQAAwhGgAAAgIoupROCtSABG5SgPojDuBwAgFAEKAACAvykqATAL/R0AAMCOAAUAAMAvhSQAgLrsQgEAQBgCFAAARGMBFQCgHuFBAACA/whQAAAA/KGABMCsHF9Fa0LUAACEIEABAEAkFk4BAGA+AjwAAIQgQAEAAGDRHgCgpTUJUwMAEIAABQAAMDPBCQAAAAAgpSRAAQBAHN44o7bl6SsAzG5J+kUAAGBiAhQAAMCMFIcA4D39JK04ygMAgKYEKAAAiMAiKQAAAAAATQlQAAAAs/FWLQB8p78EAACmI0ABAEBrdp8AAIhpSYIUtGGOAABAEwIUAADATBSBAOAchWxaMGYDAKAJAQoAAAAA4B2FbAAAYBoCFAAAtOSNRmpSAAKAaxzlQW1rMlcAAKABAQoAAGB0Cj4AAAAAwFcCFAAAtOKNMmoSogAAAAAAPhKgAAAARiY4AQDQL6FrAACqEqAAAAAAAI5YknAiAAAwMAEKAABa8CYZNSjwAAAAAACHCVAAAAAAABCV8DUAANUIUAAAUJsFUGqw+wQAlOMoD2ozhwAAoAoBCgAAAADgCiEKAABgKAIUAADU5M0xalDMAQAAAABOE6AAAABGYTtxAKhP30stwtgAABQnQAEAQC0WPAEAxiREQQ3uMwAAihOgAAAARmBBHQDaEZSlhjW51wAAKEyAAgAAAAAAAACYngAFAAA1eFOMkuw+AQBtLUl/DAAADECAAgAAAADIQZACAADomgAFAACl2X2CkhRpACAWYz9Kc48BAFCMAAUAAAAAkItwIwAA0C0BCgAAoFcKNAAQkz4aAADokgAFAAAl2V4XAADIzTwDAIAiBCgAAAAAgNzsQgEAAHRHgAIAgFK8FUZJijIAEJ/+mpLMNwAAyE6AAgAA6I1iDAAAAACQnQAFAAAleBsMAAAAAICuCFAAAAAAAKXYOYqSBLcBAMhKgAIAAOiJIgwA9GdJ+nAAAKADAhQAAOTmLTBKUHQBgL4ZIwIAAOEJUAAAANEtT18BgP7oxylFOAcAgGwEKAAAyMniJbkptgDAOPTrAABAaAIUAAAAAAAAAMD0BCgAAICovKUKAMARdsIDACALAQoAAHKxaAkAwDdLEpKkDPMRAABuE6AAAAAAAKB3gjkAANwmQAEAQA7e9iI3C+AAAAAAQFUCFAAAAABAbcKS5CbUDQDAbQIUAADcZaGS3BRUAGAO+nwAACAUAQoAAAAAoAVBXHJzTwEAcIsABQAAAADQgh0oAACAUAQoAAC4wxte5KaQAgBzWZL+HwAACEKAAgAAAACAUQh5AwBwmQAFAABXWZgkN2+fAgCQg7kKAACXCFAAAAAAADASwVwAAC4RoAAAACKwyA0AczMWIKc12YUCAIALBCgAALjCYiQAAAAAAEMRoAAAAFrzxikAkJIxAXm5nwAAOE2AAgCAs+w+AQAARGfeAgDAaQIUAABAS94MBAAAAABCEKAAAOAMb3EBAFDSkgQsAQCARgQoAACAVhRHAAAoSQAcAIBTBCgAAAAAAAAAgOkJUAAAcJS3twAAqMVOVeTgPgIA4BQBCgAAoAWL2QAAlLYmQXAAAE4QoAAAAGoTngAAAAAAwhGgAAAAAAAiErokB/cRAACHCVAAAAA1WcAGAM4wduAux3gAAHCYAAUAAAAAEJXCNwAAUI0ABQAAAAAQlR0oAACAagQoAAA4wpt/5KAAAgBcYQwBAABUIUABAMARS7JwDQAAAADAwAQoAAA4yi4UAAC0IszLXeYzAAB8JUABAMBRFq25w/0DAEBrQhQAAHwkQAEAwBmK4AAAAAAADEmAAgCAs5bdLwAAqMX4EwAAKEqAAgCAOwQpOMI9AgAAAACEJ0ABAMBdzhEGAAB6INgLAMBHAhQAANxlERIAAAAAgO49Wl8AAABD2EIUdqPgmYANzKd2X6CdgbkYd3KV/gIAgK8EKAAAyMmCNsA8orT1765DoQzGFaX9IT59AQAApyzrar4BAEARBppYsIZxjNKma5dgHKO0S5SjzQcA4DQ7UAAAAACvjFic3P+dFNYAxqR9BwDgMgEKAHox4gI+c1rSn/t5hkW97e8KQB9ma7Of/74z9M0AoxutLd/mjrP10YxrtGcUgAE5wgOAHuisGNlMiwee5bnMdG9Dz7TNr2nDID7tF6+M0n67vxnZKM8pAIMSoACYhwYfyOHuQoe2aB4WxSA27fEx2jKITVvG5lt77V4BcjA2BJiAAAXAfDT8wFW5Fgq0Q+OzqAQxaX/v0bZBPNo1UjrePrtfgKuMAwEmIkABMA8NPpDT1cUDbdEcLC5BLNrevLRxEIs2bm52ngBqMg4EmIAABUB9Gl4ARmdRCWIw7ixLWwdxaO8AGJlxJ0BFj9YXADARCzoAzMDCDrRn3FnH9nPW7gEAUJJxJ0BFAhQAZVi0BmBGFnOgLWPQNixoAwBQw6vxvjEoQGYCFMCsLC4DADAKY9sYBCkAAKit9FzA2BaYzk/rCwAAAAAuE56Ix2cCdXnmAACAbJZ1NccAwtJAAUA/vJUCdRkr90HbCPVoFwGgL8bKQEh2oAAAAIB+rEmRsCc+L6hHEQYAALjt0foCgKFYGAQAgHKMt/u1JsVdKE0bCQB9yd13G28DWTjCA7hDAwIApGSRAkoz7h6LNhPK0V4CABvjbuASR3gAAABAXIqB4/GZAgAAQFCO8IB5WKQDAIpZlmVZbW8HuXmmxuVIDwAAKKvEfMoYHibgCA+Yj4ceAMhtSYqBkJMx+1y0nZCXNhQAyM2YHSZiBwqIz8QfAIhuC0+cGbdYfIDXjP/nI4AG7xlbAAAR5J6nGbdAYHaggNg8oADAyCwYwN+M/+emTYS/aRMBgJEZ/0NQP60vAAAAmNaaFEdg41nAPQB/GB8AAADN2IECyvOQAQCU580NemW+wCvaNHqlTQMAKM98AQqyAwWUZeEAAKA8Cwf0ynyBd9wb9EqfDABQnvkCFCRAAeXowAAA6jDuokfuW75xj9Aj9y0AQB3GXVCIIzzgMw8IAMD4lvRn3OetWWoxz+AMbRO1bH2hNgoAYHzmGfCGHSjgPQsGAABzEJ6gJvMMznLPUIvwBADAPIz74A07UDAyb04AAFCS0AVnmZtwhzaHs7Q5AACUYCdPhmYHCkZnsQAAgFLWZLzJce4V7nIPcZT+CQCAkow1GZoABQAAwD0KVXzj/iAX9xKf6I8AAABucoQH0blBAQAYme0ux2dOQwnajvFpOwAAGJk5DWHZgQIAAADKUAClFPcWAAAAFPBofQFMwcIOAAC8dmes7G0NgNishwAAwGvWQwjLDhTUoCEDAABmo3BKae4xAABgNmqOFCdAQQ0WdQAAID/j7Lh8NtTiXovLZwMAAPkZZ1Pcsq7uM05xwwAAQN+8rVGWORMteK7L8lwDAEDfzJk4zA4UAAAA87BgUJYiK62498rSdgIAAEzi0foCaGNZlmX93X7k00LLcuDfAQAA+nB2XK9oCIzKOgcAAMxjG/8fqXsuKf1TS2UijvCY15r+NABuAAAA4AyhitfMrYjA8/ma5xMAADhjq6GaY01IgGJuPnwAAOAoiwbvmVsRiWf1Pc8qAABwlLnVpAQoxuGDBAAAIpllocFcjIg8fwAAAPXNMhcb2k/rCyAbDyQAAAAAAABAfWq1g7ADRT98UAAAwGh6X1wwTyMyzxcAAEAsvc/TpiBAEZ8PCAAAmEFviwjmavTAcwUAABBPb3O1qTxaXwBvWTQAAAAAAAAAGMtWBxakCMgOFHX5YQMAAOTTaqHB3I6eeE4AAAD6J2xRiR0oAAAA6I1FA4hve04FKQAAAOiGHSjy8EMEAACIK2fgwvyPHnkGAAAA5uClk5t+Wl/AACwcAAAAxLamPHM38z96lev+9wwAAADEZt52kyM8rnPzAQAAAAAAABDJVse2G8UFjvD45QcBAABASq8XGMwZGYF7GwAAgHcELpIjPPbcEAAAAKSkoMw83OsAAACkpFb+f7MEKNb091mdrxYILBoAAACwWd/8M/TMfQ0AAMArn+rnz7X2oc1whMfwf0EAAAAAAAAAqGDo3Spm2YECAAAAAAAAAOCtR+sLOMluEgAAAAAAAADQxpWafTe7VvQSoBCcAAAAAAAAAID+bPX+8EEKR3gAAAAAAAAAANOLtAOFXSYAAAAAAAAAYEyfMgEhdqeIsgOF8AQAAAAAAAAAzClEZqD2DhQh/tIAAAAAAAAAQCjv8gTVdqeouQOF8AQAAAAAAAAAcEa1rEGUIzwAAAAAAAAAAJopeYSHHScAAAAAAAAAgLue8wdFjvUouQNFtXNIAAAAAAAAAIApFMsilNqBwu4TAAAAAAAAAEBuWx4he5Aid4BCcAIAAAAAAAAAKC17kCLnER7CEwAAAAAAAABATdmyCrkCFMITAAAAAAAAAEALWTILd47wEJoAAAAAAAAAACLYZxguHeuR8wgPAAAAAAAAAIAundmBwo4TAAAAAAAAAEB0z/mGQztS2IECAAAAAAAAAJieAAUAAAAAAAAAML2jAQrHdwAAAAAAAAAAPTqUeXjk+EMAAAAAAAAAAALb8g/Lu3/h0w4UwhMAAAAAAAAAwEjeZiGOHuEBAAAAAAAAADAsAQoAAAAAAAAAYHqP3T87sgMAAAAAAAAAGN1zPmJJ6XcHCuEJAAAAAAAAAGBGa0q/AYql4YUAAAAAAAAAALTy1w4UAAAAAAAAAADT+kmO7wAAAAAAAAAA5rZuO1AIUQAAAAAAAAAAM1pTcoQHAAAAAAAAAIAABQAAAAAAAACAAAUAAAAAAAAAMD0BCgAAAAAAAABgegIUAAAAAAAAAMD0BCgAAAAAAAAAgOkJUAAAAAAAAAAA0xOgAAAAAAAAAACmJ0ABAAAAAAAAAExPgAIAAAAAAAAAmJ4ABQAAAAAAAAAwPQEKAAAAAAAAAGB6AhQAAAAAAAAAwPQEKAAAAAAAAACA6QlQAAAAAAAAAADTE6AAAAAAAAAAAKYnQAEAAAAAAAAATE+AAgAAAAAAAACYngAFAAAAAAAAADA9AQoAAAAAAAAAYHoCFAAAAAAAAADA9AQoAAAAAAAAAIDpCVAAAAAAAAAAANMToAAAAAAAAAAApidAAQAAAAAAAABMT4ACAAAAAAAAAJieAAUAAAAAAAAAMD0BCgAAAAAAAABgegIUAAAAAAAAAMD0BCgAAAAAAAAAgOk9UkrLf/+8trwQAAAAAAAAAIAGlpTsQAEAAAAAAAAAIEABAAAAAAAAACBAAQAAAAAAAABMbwtQrE2vAgAAAAAAAACgjTWllB7//Y/l3b8AAAAAAAAAADCQVxkJR3gAAAAAAAAAAAhQAAAAAAAAAADTE6AAAAAAAAAAAKb3+PB7+zM/1tIXAgAAAAAAAABQyPLtXzi6A8XXPwgAAAAAAAAAIKBDmQdHeAAAAAAAAAAA0zsToLALBQAAAAAAAADQk8NZh8fFP3g9+d8BAAAAAAAAANRyepOIq0d42I0CAAAAAAAAAIjoUqbhaoACAAAAAAAAAGAYZ4/w2NsnNhzpAQAAAAAAAAC0cvskjVw7UDjSAwAAAAAAAABoIUtmwREeAAAAAAAAAMD07hzh8ew50eFYDwAAAAAAAAAgtyKnZOQMUDzbLliQAgAAAAAAAAC4q0hwYlPjCI+ifwEAAAAAAAAAYHjFswcld6DYc7wHAAAAAAAAAHBU9c0aagUonjneAwAAAAAAAAB41uyUixpHePxjWZYl/QlPLLtfAAAAAAAAAMB89tmB9b9MQf2LWNdQm0CEuhgAAAAAAAAAoKgwGy402YECAAAAAAAAACCSR+sLePItWWKHCgAAAAAAAADoR5gdJr6xAwUAAAAAAAAAMD0BCgAAAAAAAABgetGO8PjmytYejv0AAAAAAAAAgPu6OY7jitF3oBCeAAAAAAAAAIA8hq7B97YDxVn79Mv63/8e+gMFAAAAAAAAgEy2GvvQO09slnWVJ9jxwwAAACCl94sC5o30yP0MAADAJ1OEI44Y/QgPAAAAyMmCAr1xzwIAAMBBox/hcdaRRQVvZwAAAPRLMRl+HX0erIUAAAD0y1rICXagOMeCAQAAQL9yLRhYeKAX7nkAAADUuE+wA8U5ZxcM3IwAAADlKe5CeXarAAAAiMNaSCF2oAAAAKBnrRYMLFQQnWcDAAAAThKgKM/CAQAAQH5Laj/fav3/D++0vjcjPJ8AAAAjMtcqzBEeZS1PX7+xzSUAADA7CwEwDushAAAAx5xZD7F2UpAdKAAAAIiixwWAHq+ZsfV4T/Z4zQAAAAzIDhTxLOn3zYv9AoK3MQAAgJ69KpA+z3Oe/3cvRdX9PA5a6uWZSen7M3OkzQAAAOjJq9qvNYVglnX1eXTMhwcAAETWUzE3B3M0WvK8AQAAxDHbHG0YjvDomwcPAAAAAAAAIA413I7ZgWIMa/p9EPf//PzvAAAA5PJu3jH7IoG5Fy147qyFAAAA5X1bC7EuMgABivn4wAEAgKssAhxj3kVNnstjPJcAAMBV5l0TcYTHfDzgAADAVQqQx5h3UYt77RhtFwAAcJV512TsQMFRbhQAABiHyX8d5lGU5Dmuw3MMAADjMI/iKztQAAAAzEdBEOA7bSUAAMBk7EBBKW4sAACoz5sU8ZgbUYJnPR7POgAA1GduRHZ2oKAUDRYAANSzJGPwqHwu5Oaeikk7DAAAdRl/U4QABaVpvAAAoCxj7vh8RuTiXorPZwQAAGUZc1OUIzyIyo0JAMBsLACMzzyHO7QR49NGAAAwG/McwrEDBVFpMAEAgNGY53CVewcAABiNeQ4h2YGCkbiZAQCIwAIA35i7cIY2hW+0KQAARGDuwhDsQAEAAJCPxQKOcJ9wlHuFI9wnAAAAmQhQMBILBgAAtLYmbwJzjPkL37hHOEK/AwBABOYvDMMRHvDLwwAAwMbEn1rMQ3hFG0Qt2iAAADbmIZDsQAF7OgYAAKC2JZmL8Mv9AAAAtGAeAv95tL4ACGZJv29fnOksvLEBABDPncn/evO/h7P2cxHmpM2htrt9nTYLACCeK7UtcxHYcYQH5OWBAgBoy6Sf3plTzEnbRe+0XQAAbZlTQCaO8AAAAEayJkUc+mbRaz4+c3qm3wUAAIZiBwqIyYMJAMxIERH+Zl4wNm0e/E2bBwDMyLwAgrEDBcSkwwQAZrOklNKyLMZB8MvzMC6fLfxn1/d7LgCA2Rj/QEB2oIDxeKgBgJbOTP7Xk/8+zMoYfyzaPfju7BhBOwkAtGSMDwMRoIDxecgBgBosFkB5xvZ9005CedpJAKAGY3sYmCM8YHw6cgAAGIOxfb98dgAAMAZjexjco/UFAFXk7NC9zQEAvOI4Dqhje86My/ugXQQAgPaMy4HD7EABnGWgAQAA7S3J2Dwynw/UJ1gGALxiXA6cYgcK4IocAw4LGwAAcN+SjK2jsUALAAB5GFsD1QlQAK08D3ws+gIAwDWO9YjB4i4AANxjTA00t6yr9RWgGQ0QAIzHYge0Z5xdl3YP2tPuAcB4jLOBJuxAAUSTe1BkEQUAgNnYkaIOC7oAAMzKOj4wLAEKoKVaC47OhQaAetakqAhRCFKUoY2DWLRxAFBPqbV2Y2wgjJ/WFwBQQcnFFAM7AACiW5Jxaw5+jgAA9KDkmFVwERjesq7aOoBMNKgA8IcCI8Rn7HqM9gxi05YBwC9jV4AM7EABkIdFGwD4pV+E+Oym8JmfDwAAvTEXB8jg0foCAAYRYXHVABmAKCL0i8Ax++d19vGktgsgvue2eva+C4jFeBJgAI7wABiPhh2ACCwcQf9GH1dqp6Bvo7dRvPap7XZPAK0YVwIMRIACYBzPDbq3CQFozSISjGOU8aR2CcYxSrvENYIUQCuf1lyNNQEGIEABQEs6ITgu2iTc88sR0e5bIK/ofYE2CMYVvf2hnt7aevcuHNfb8w3AIB6tLwCAKVkwgPPWFGfxwDMMQErv+6Xa/USU/hGA+iLNk74xj4Jztmeml2ccgEEIUADQgokP9MuiH2f0tKAN5OO5B4B/6R8BADrw0/oCAADowpqEJwAAaM+YlGfuCQAAshGgAADgGwuSAABAZALfAABkIUABAACUZCEbAMjFuIJvBCkAALhFgAIAAAAAgJEIUgAAcIkABQAAAAAQnWI4Zy2tLwAAgP4IUAAA8I2FR+5S8AAAoDZjUAAAThOgAADgGwuPAAC0ZDzKVe4dAABOEaAAAOAbO1AAAAC9EqIAAOAwAQoAAI4QouAuC9cAALRiLAoAwCECFAAAAABAVArfAABANQIUAABALQogAAAAAEBYAhQAABzlGA9yEKIAAI4ybgAAAKoSoAAAAAAAYGTC4AAAHCJAAQAAAABEY/cJAACgOgEKAACgNgURAAAAACAcAQoAAAAAAEbl+A4AAA4ToAAA4AyLjwAAlGa3KgAAoAkBCgAAoAWFEQAAAAAgFAEKAACgFSEKAOCZ8QE52UEPAIBTBCgAADjLIiQAANADgRwAAE4RoAAAAFqyqA0AQCnC3wAAnCJAAQAAtCZEAQCkZEwAAAA0JkABAMAV3uQiJ/cTAAAAANCcAAUAAAAA0JrdJ8hNSBcAgNMEKAAAgNbWpGgCAAAAADQmQAEAAAAAtCRISW52nwAA4BIBCgAArrIoCQAAAADAMAQoAACAKLx9CgAAAAA0I0ABAAAAALQiQEludsoDAOAyAQoAAO6wOAkAAAAAwBAEKAAAgEjW5E1UAJiFPp/cBLwBALhFgAIAAAAAAAAAmJ4ABQAAEI03BwEAAACA6gQoAACAaBzjAQDj09eTmxAuAAC3CVAAAHDXkixWUobCCgCMSR9PbuYjAABkIUABAABEZSEcAAAAAKhGgAIAAIjKUR4AAAAAQDUCFAAA5GK3AEoRogCAcejXyc08BACAbAQoAACA6CyKAwAAAADFCVAAAADReVMVAPq1P5JLn05ugrYAAGQlQAEAQE4WMCllX3wBAPqyJP04AADQAQEKAABysjAOAMAzY0QAAKALAhQAAORkBwpKcn8BALAxNgQAIDsBCgAAcrOQSSneXgWAvui7AQCArghQAAAAPVGIAYA+6LMBAIDuCFAAAAAAANATu94BAFCEAAUAACVY0KQkb7QCAMzLXAMAgGIEKAAAgB4JUQAAAAAAWQlQAABQijfDAADmJOgIAAB0SYACAICShCgoSXEGAOLRP1OS+QUAAEUJUAAAAD1bk0INAAAAAJCBAAUAACUpbAMAzMPYj5LsPgEAQHECFAAAlGSRkxrcZwDQluAEAAAwBAEKAACgd4o2ANCe/hgAAOieAAUAADCCNSncAEAL+l9qsOMYAABVCFAAAFDakix4AgCMSHgCAAAYigAFAAA1WFwHAACuEMYGAKAaAQoAAGAkjvIAAAAAAC4RoAAAoAbHeFCbEAUAlKWvpQZzCAAAqhKgAACgFovs1GSxHQAAAAA4RYACAAAYkaM8AKAcfSwAADAkAQoAAGpxjActKPAAAPTJ3AEAgOoEKAAAgJFZeAeAvIQTAQCAYQlQAAAAAAAQiRAsAABNCFAAAFCbxVBqWpM3ZQEgB30qAAAwPAEKAABgBgo+AHCdfhQAAJiCAAUAAAAAAFHYsQ4AgGYEKAAAgFl4exYAztN/AgAA0xCgAACghSV5s4w2FIEAAOIyRwAAoCkBCgAAWlHIBgCIzXgNAACYigAFAACteLuMVhSDAADiMT8AAKA5AQoAAFqySEoraxKkAIBP9JMAAMB0BCgAAICZKQ4BwK/16SvUIlgNAEAIAhQAALRmsZSW3H8A8DfhCQAAYFoCFAAAwMwUiQDgD30iAAAwPQEKAABgdgpGAADt2BEMAIAwBCgAAIhgSRZOaUuIAgAAAAAmJ0ABAAAAAHMTJKQVIWoAAEIRoAAAIAoL97TmHgRgRvo/AACA/whQAAAQhbfPiGBNCkkAzEGfBwAA8ESAAgCASIQoAADKE5wgAmN/AADCEaAAAAAAAAAAAKYnQAEAQDTeRCMC25oDMCr9GxEY8wMAEJIABQAAEVlQJQpBCgAAAACYhAAFAAARKVgDAORnjEUEwtIAAIQlQAEAQEQWVQEAAAAAqEqAAgCAqIQoAADycCQVAADAAQIUAABEJkRBFApPAPRK/0UkxvcAAIQmQAEAQGQW/InGPQkAAAAAgxKgAAAgMm+oEY17EoDo1jf/DK0ZRwEAEJ4ABQAA0VloJRJHeQAAAADAoB6tLwAAAKBD+xCFkA8AUaxPXwEAADjBDhQAAPRAgRoAAPplPA8AQBcEKAAA6IVFVwAAAAAAihGgAAAAuGdNtkoHoD19EVEJQgMA0A0BCgAAemLxlcgEKQAAAACgYwIUAAAAANA3AT6iEoAGAKArj9YXAAAAAABcIjgBAACQkR0oAAAAAKA/whMAAACZCVAAANCbJdkKmNjWpKgFAGDMDgBAdwQoAAAAyhCkAKAU/QsAAEABj9YXAAAAAAAcIjhBL+w+AQBAl+xAAQBAryzKAgAzEZ4AAAAoTIACAICeCVHQA0d5AAAzMUYHAKBbAhQAAAB1CFIAcJX+AwAAoAIBCgAAgLoUwQA4Q79BT+w+AQBA1x6tLwAAAG7aFmkVF+iFwgIARxjbAAAAVCZAAQDACBQY6Mn+fhWmAOAVYxt6ZFwDAED3BCgAABjBkhQannfi2C9gfyrYz/5za+3V5wUAAAAANLCsq/VSAACG0fPg9tVRJJ++t7e++f5ZPf/8RiBEAUBK+mP6ZBwDAMAQ7EABAADXPO968Srs8O77nxaYX/3etwXpXAvWdvIAgDb0v/RMeAIAgGEIUAAAwK+zu0CcCUf0sLCseAMAwBk9jHEBAOAwAQoAAEZy5xiMV3/Ot+8d/fPgiFxHsQDQD21/DPvP4NVuYvvP6d3vAwAAA1jW1fgeAAD4i0lCe4ppAOPT37Z3pL99F3J59f3ZPlPjFQAAhiNAAQAAvGOy0J7CBMC49LNtle5jt8/33e4W38IXPexsYZwCAMBwHOEBAAAAAHVFL4xzX44j4Y4cLfLpz3KfAQDASQIUAAAAAFDHu+MgqKvHz+BIIOP5/noVpHgXrji740WPP0MAAPjKER4AAMA3Jg3tKVIA9E1fGot+9W/fjhvZ24IWfoYAAAzJDhQAAADxfTozHQA4Tj/6r0+7W7wag/gZAgAwrJ/WFwAAAMAp3mIG6MP69BV6tOx+AQDA8OxAAQAAfPPurGzaUMAAiE94IhZ9JwAAcIgdKAAAgKMUH2JYk4IcAAAAAGQnQAEAAJwhRBGHIAVAPNrleIxdAACAwwQoAACAMxSG4hGkAIjBsR0AAACdE6AAAADO8BZnXIIUAAAAAHCDAAUAAHDWkgQpIhOiAKhP2xuT8QoAAHCKAAUAAHCVokRMPheAeuz+AwAAMJBH6wsAAAAgqzUJUQDUIDgRkz4QAAC4zA4UAADAHYoUMXkjGqAsbWxMxiUAAMAtdqAAAADu2ooViknxbJ+JghLAffo5AACAwQlQAAAAjE+QAuA6wYk+6OMAAIDbHOEBAAAwD0VAAEYkPAEAAGQhQAEAAOSyJAWM6Hw+AOcInsWmXwMAALISoAAAAHJTzIhrTYqBAEdpL/tg3AEAAGTzaH0BAADAkJak8BTZ/rNReAL4m/6rD/ovAAAgOztQAAAAJSg+9cOuFAC/tIcAAAATE6AAAABK8FZofwQpgFmtT1+JzzgDAAAoQoACAAAoZUkKHD0SpABmpN0DAABAgAIAAICXFBOBkdl1ol/CmQAAQDECFAAAQGkKHX3yuQGjE57oi52tAACA4gQoAACAGhQ8+rMmx3kAY9Ku9cc4AgAAqEKAAgAAqMWbo/0SpAB6tj+uQ1vWH2MHAACgGgEKAACgNoWQfik+Ar3SdvXLZwcAAFTzaH0BAAAAdGcrZgnDAFEpuvdN/wIAADQhQAEAALSwFUYUuPq2//wUu4Ao9C0AAABc4ggPAACgJUX3cTjeA4AcjA0AAIBmBCgAAIDWFErGsPz3S4gCaEWQCwAAgFsc4QEAALSm2DWG7XMUiAFa0JeMQR8CAAA0JUABAAC0ZteCsaxJAQyoQ98xDv0GAAAQggAFAAAQwVY4UQwbg90ogJL0FWPRVwAAAGH8tL4AAACAnSUppIxkTQqdQB7r01cAAADIToACAACIRnFsPIIUQA7akfEITQIAAKEIUAAAANEopoxLkAI4S7sxLv09AAAQzqP1BQAAALywFVUUzca0/1wV0IBXtP/j0u4DAABhCVAAAACRCVKMb/tsFdSAlLT3AAAANCRAAQAAQASCFDA3wYk5aOMBAIDQBCgAAACIRJAC5iE0MRftOgAAEJ4ABQAA0ANHecxHkALGpS2fi3YcAADoxk/rCwAAADhhSQoxs1FohbF4pueizwYAALoiQAEAAEB0Cq7QvzV5lmcjPAEAAHTHER4AAAD0wJEe0BdhCQAAALpjBwoAAKBHiujz8hY7xOYZRR8NAAB0a1lXc1oAAKBrJjVzU6iDOLTHaJMBAICuOcIDAADo3VasUbibk6M9oC1tLwAAAMMQoAAAAEaxJIW8me0/e2EKqEOby0a7CwAADEGAAgAAgNHYlQLKEJjgFW0tAAAwDAEKAABgJHahYO95V4o1KfTBWdpU3tGeAgAAw1nW1TwYAAAYkskO3yj+wWtb2Eg7yjfaUQAAYCh2oAAAAEa1FXUUAHnn+d5QCIRf2k7esaMPAAAwLAEKAAAA+OP5yA+YhbAERy1PXwEAAIby0/oCAAAAClPk4Yo1KSozPvc5Z+hPAQCA4dmBAgAAmIHjPLhqu2cUDhmBNpArtH8AAMA0BCgAAICZCFJwleM96JG2DgAAAE4QoAAAAGa0JIVFrvu0K4UdK2hN20ZO2jIAAGAqAhQAAMCshCi463lXijW93uVEAZKShHYoxT0FAABMZ1lX64UAAMCUTIaoTTGSXLRflKStAgAApmUHCgAAYFZ2oKA2u1JwlbaKWrRNAADA1AQoAACAmb06bgFqcOwC32iXqE17BAAATE+AAgAA4O+ikaIlNT3vSvF8/ylozkG7Q0vaGQAAgP8s62qODgAA8MREiWgUOMejnSECbQsAAMCOHSgAAAD+pqhJRM87VRDfmhwTRGzaEgAAgCd2oAAAAHjNZInoXhXn3xVE1w+/Rx7aDHqhLQAAAHjjp/UFAAAABLUkRSZiW9O/RftX3zvye3z27efs5woAAAADsAMFAADAMSZPjOY5IOSYkD+2n8Py4nvQu5mfbQAAgK8EKAAAAM4xiWImR48JiXZEyKvrefV38Dwzg0jPJgAAQGgCFAAAAOeZSMEfS3r/PBwJX7za7eHd99/9Oc/f93zC3wQoAAAADhKgAAAAOM9ECsoQgIB8BCcAAABO+ml9AQAAAB1SlIIyhCfgviXppwAAAC4RoAAAAACAMQhOAAAA3PBofQEAAAAAwC2CEwAAABnYgQIAAAAAAAAAmJ4ABQAAwHlr6wsAgB39EgAAQAYCFAAAAAAAAADA9AQoAAAAzvGWLwAAAAAMSIACAADgnOW/XwAQhX4JAAAgAwEKAAAAAAAAAGB6AhQAAAAA0Lc1OWIKAADgNgEKAACA8xSpAIjGMR4AAAA3CVAAAAAAAAAAANMToAAAAAAAAAAApidAAQAAcI7jOwAAAABgQAIUAAAA5zhjHoCIBPwAAABuEqAAAAA4T4gCAAAAAAYjQAEAAHCet3wBAAAAYDACFAAAAADQP7sjAQAA3CRAAQAAcI7dJwAAAABgQAIUAAAAANA/AT8AAICbBCgAAAAAAAAAgOkJUAAAAAAAAAAA0xOgAAAAOGdpfQEA8IL+CQAA4CYBCgAAgHOcMQ8AAAAAAxKgAAAAAIAxCPkBAADcIEABAAAAAP0TngAAALhJgAIAAOA4xSkAIltaXwAAAEDPBCgAAAAAAAAAgOkJUAAAAAAAAAAA0xOgAAAAOM7W6AAAAAAwKAEKAACAc4QoAIhqbX0BAAAAPROgAAAAOEdxCgAAAAAGJEABAAAAAGOwSxIAAMANAhQAAADH2X0CAAAAAAYlQAEAAAAAAAAATE+AAgAAAADGYKckAACAGwQoAAAAAAAAAIDpCVAAAAAct7S+AAAAAACgDAEKAACA42yNDkBkgn4AAAA3CFAAAAAAAAAAANMToAAAAACAMazJbkkAAACXCVAAAAAcoyAFAAAAAAMToAAAAACAcSytLwAAAKBXAhQAAAAAAAAAwPQEKAAAAI7xRi8AAAAADEyAAgAAAAAAAACYngAFAADAMWvrCwCAA/RXAAAAFwlQAAAAAAAAAADTE6AAAAAAgHEsrS8AAACgVwIUAAAA39kOHQAAAAAGJ0ABAAAAAAAAAExPgAIAAOA726ED0Au7JgEAAFwkQAEAAHCMEAUAAAAADEyAAgAA4Bhv9ALQA4E/AACAiwQoAAAAAAAAAIDpCVAAAAAAAAAAANMToAAAAPjO8R0A9GJN+i0AAIBLBCgAAAAAYCxL6wsAAADokQAFAADAdwpRAAAAADA4AQoAAAAAAAAAYHoCFAAAAAAAAADA9AQoAAAAvltbXwAAnKDfAgAAuECAAgAAAAAAAACYngAFAAAAAIxlaX0BAAAAPRKgAAAA+Mw26AAAAAAwAQEKAAAA6Ie3ygEAAAAKWdbVy1QAAABfmDjRwpGwhHszjiX9+Tz2n5vPh5YErgAAAE6yAwUAAAD0a0n/FklffW//e+nD7/Pe8vTP+5/zq/AEAAAA0Bk7UAAAAHxn4kRtuQvx2z386s99vr+XN98f0au/6/PPKFcwYoafJ7EI9AAAAJz0aH0BAAAAQHGfCqnfdqt4FS54FwZY3vzeq++/+3ff/f67/+93f/beqxDEp9DEpz8LeuC+BQAAuMAOFAAAAJ+ZNNFCT8XPb7tbvAsuHP3+p//fo/+fEWhLqCniMwAAABCeAAUAAMBnJk3UouA5Nm0JLWhXAAAATvhpfQEAAACBKXhSiyLn+JbkcwYAAIDQBCgAAAA+U/AEchKkoBb3GQAAwEkCFAAAAO8tyS4UlKfICQAAABCAAAUAAMBnituU5P4CAAAACEKAAgAA4DM7UAAlOMoDAAAAghGgAAAA+EyBkxIUz4HSBAABAABOEqAAAAD4TrGbnNxLAAAAAAEJUAAAAByn8A3kJqBFKe4rAACAkwQoAAAAzlHsBErQtgAAAEBjj9YXAAAA0Kmt0OmMeY5QGOeoJWlXuE5bAwAAcIMABQAAwD2CFHyjoMkZ2hLO0L4AAABk5AgPAACAPJZkC37gPm0IR7hPAAAAChCgAAAAyE+Qgo37gCu0IRzhHgEAAMhMgAIAAKAcu1IAd2g72FuevgIAAJCZAAUAAEAdghTz8XkDuWlXAAAAChKgAAAAqEuQAjhDe4F+AwAAoJJH6wsAAACY1L4Ytja7CnJT5KSE7b7SVsxFewIAAFCZAAUAAEB7iqNjUOwE7tKOAAAANOQIDwAAgDhs0w4wL+0/AABAY3agAAAAiMfxHv1R+KQGu9WMSfsBAAAQhAAFAABAbAqmsSl80sKStAm903YAAAAE5AgPAACAPjjeA9jTHvRJWw4AABCYHSgAAAD64niPOBRBacnz3xftBQAAQAfsQAEAANAvbzLDvDz7/fBZAQAAdMIOFAAAAP2zK0V9CqJEsN2Hnvt4tBEAAAAdsgMFAADAWOxKAfPxzMehDQYAAOiYAAUAAMCYFPHyW56+AqSkbQAAABjGsq52eQQAAJiECeA9iqNE5xmvT7sAAAAwkEfrCwAAAKCardCnyHqeIik98IzXoT0AAAAYlCM8AAAA5uN4j3P8rOiNe7YMP1cAAIDB2YECAABgXvtioDfWAV5b3vwzAAAAgxGgAAAAICVb/z9TJKV3S/I836UdAAAAmIwABQAAAHuCFDAOIYrzhCYAAAAm9tP6AgAAAAhp2f2azYx/Z8blfj7GzwkAAAABCgAAAL6aNUgBI7ADxWv7du35KwAAAJMSoAAAAOCoGXalGPnvxpzc079eBSX8fAAAAPg/AQoAAACuGDFIMdrfBzYjPq9H2WUCAACAw5Z1tZMjAAAAt/U8uVRQZTY9P69neLYBAAA45dH6AgAAABjCvlA5S3EWejT687m1RaP/PQEAACjADhQAAACU0sOE0xvqzKiHZ/MszzIAAAC3/bS+AAAAAIa1JEVNiGiUZ3N5+goAAAC3CFAAAABQ2pJiFmyjXQ/U1tMz8ByWEJ4AAAAgu0frCwAAAGAqW7Gz5RECCq7QJ6EJAAAAihKgAAAAoIV9AbRmmELhFf4WIdT0jucVAACAqgQoAAAAaK1WAVcxFt5bUowQhecUAACAZgQoAAAAiCLym/BAOUITAAAAhCBAAQAAQDStjveAmTlKBwAAgOkJUAAAABBZrl0pFGzhs5I7wHj+AAAA6IIABQAAAD24WtxdLvw3MDOhJQAAAKYlQAEAAEBPzhzvsTx9BcryrAEAANA1AQoAAAB6tX9TXuEW6vPcAQAAMBQBCgAAAHqniAv5vTrKw7MGAADA0P4HXSxwDc0k/VIAAAAASUVORK5CYII=;" parent="180" vertex="1">
                    <mxGeometry x="290.05" y="36.629999999999995" width="83.39" height="32.25" as="geometry"/>
                </mxCell>
                <mxCell id="235" value="PILOTES" style="swimlane;fontStyle=0;childLayout=stackLayout;horizontal=1;startSize=30;horizontalStack=0;resizeParent=1;resizeParentMax=0;resizeLast=0;collapsible=1;marginBottom=0;strokeColor=#007FFF;" parent="180" vertex="1">
                    <mxGeometry x="20" y="340" width="140" height="120" as="geometry"/>
                </mxCell>
                <mxCell id="236" value="PILOTE 1" style="text;strokeColor=none;fillColor=none;align=left;verticalAlign=middle;spacingLeft=4;spacingRight=4;overflow=hidden;points=[[0,0.5],[1,0.5]];portConstraint=eastwest;rotatable=0;" parent="235" vertex="1">
                    <mxGeometry y="30" width="140" height="30" as="geometry"/>
                </mxCell>
                <mxCell id="237" value="PILOTE 2" style="text;strokeColor=none;fillColor=none;align=left;verticalAlign=middle;spacingLeft=4;spacingRight=4;overflow=hidden;points=[[0,0.5],[1,0.5]];portConstraint=eastwest;rotatable=0;" parent="235" vertex="1">
                    <mxGeometry y="60" width="140" height="30" as="geometry"/>
                </mxCell>
                <mxCell id="238" value="PILOTE 3" style="text;strokeColor=none;fillColor=none;align=left;verticalAlign=middle;spacingLeft=4;spacingRight=4;overflow=hidden;points=[[0,0.5],[1,0.5]];portConstraint=eastwest;rotatable=0;" parent="235" vertex="1">
                    <mxGeometry y="90" width="140" height="30" as="geometry"/>
                </mxCell>
                <mxCell id="241" value="APPAREIL" style="swimlane;fontStyle=0;childLayout=stackLayout;horizontal=1;startSize=30;horizontalStack=0;resizeParent=1;resizeParentMax=0;resizeLast=0;collapsible=1;marginBottom=0;strokeColor=#007FFF;" parent="180" vertex="1">
                    <mxGeometry x="363.5" y="340" width="140" height="120" as="geometry"/>
                </mxCell>
                <mxCell id="242" value="APPAREIL 1" style="text;strokeColor=none;fillColor=none;align=left;verticalAlign=middle;spacingLeft=4;spacingRight=4;overflow=hidden;points=[[0,0.5],[1,0.5]];portConstraint=eastwest;rotatable=0;" parent="241" vertex="1">
                    <mxGeometry y="30" width="140" height="30" as="geometry"/>
                </mxCell>
                <mxCell id="243" value="APPAREIL 2" style="text;strokeColor=none;fillColor=none;align=left;verticalAlign=middle;spacingLeft=4;spacingRight=4;overflow=hidden;points=[[0,0.5],[1,0.5]];portConstraint=eastwest;rotatable=0;" parent="241" vertex="1">
                    <mxGeometry y="60" width="140" height="30" as="geometry"/>
                </mxCell>
                <mxCell id="244" value="APPAREIL 3" style="text;strokeColor=none;fillColor=none;align=left;verticalAlign=middle;spacingLeft=4;spacingRight=4;overflow=hidden;points=[[0,0.5],[1,0.5]];portConstraint=eastwest;rotatable=0;" parent="241" vertex="1">
                    <mxGeometry y="90" width="140" height="30" as="geometry"/>
                </mxCell>
                <mxCell id="283" value="" style="shape=table;startSize=0;container=1;collapsible=0;childLayout=tableLayout;strokeColor=#007FFF;" parent="180" vertex="1">
                    <mxGeometry x="310" y="98" width="330" height="183" as="geometry"/>
                </mxCell>
                <mxCell id="284" value="" style="shape=partialRectangle;collapsible=0;dropTarget=0;pointerEvents=0;fillColor=none;top=0;left=0;bottom=0;right=0;points=[[0,0.5],[1,0.5]];portConstraint=eastwest;strokeColor=#007FFF;" parent="283" vertex="1">
                    <mxGeometry width="330" height="35" as="geometry"/>
                </mxCell>
                <mxCell id="285" value="N°VOL" style="shape=partialRectangle;html=1;whiteSpace=wrap;connectable=0;overflow=hidden;fillColor=none;top=0;left=0;bottom=0;right=0;pointerEvents=1;strokeColor=#007FFF;" parent="284" vertex="1">
                    <mxGeometry width="66" height="35" as="geometry">
                        <mxRectangle width="66" height="35" as="alternateBounds"/>
                    </mxGeometry>
                </mxCell>
                <mxCell id="286" value="PILOTE" style="shape=partialRectangle;html=1;whiteSpace=wrap;connectable=0;overflow=hidden;fillColor=none;top=0;left=0;bottom=0;right=0;pointerEvents=1;strokeColor=#007FFF;" parent="284" vertex="1">
                    <mxGeometry x="66" width="66" height="35" as="geometry">
                        <mxRectangle width="66" height="35" as="alternateBounds"/>
                    </mxGeometry>
                </mxCell>
                <mxCell id="287" value="APPAREIL" style="shape=partialRectangle;html=1;whiteSpace=wrap;connectable=0;overflow=hidden;fillColor=none;top=0;left=0;bottom=0;right=0;pointerEvents=1;strokeColor=#007FFF;" parent="284" vertex="1">
                    <mxGeometry x="132" width="66" height="35" as="geometry">
                        <mxRectangle width="66" height="35" as="alternateBounds"/>
                    </mxGeometry>
                </mxCell>
                <mxCell id="288" value="DEPART" style="shape=partialRectangle;html=1;whiteSpace=wrap;connectable=0;overflow=hidden;fillColor=none;top=0;left=0;bottom=0;right=0;pointerEvents=1;strokeColor=#007FFF;" parent="284" vertex="1">
                    <mxGeometry x="198" width="66" height="35" as="geometry">
                        <mxRectangle width="66" height="35" as="alternateBounds"/>
                    </mxGeometry>
                </mxCell>
                <mxCell id="289" value="ARRIVEE" style="shape=partialRectangle;html=1;whiteSpace=wrap;connectable=0;overflow=hidden;fillColor=none;top=0;left=0;bottom=0;right=0;pointerEvents=1;strokeColor=#007FFF;" parent="284" vertex="1">
                    <mxGeometry x="264" width="66" height="35" as="geometry">
                        <mxRectangle width="66" height="35" as="alternateBounds"/>
                    </mxGeometry>
                </mxCell>
                <mxCell id="290" value="" style="shape=partialRectangle;collapsible=0;dropTarget=0;pointerEvents=0;fillColor=none;top=0;left=0;bottom=0;right=0;points=[[0,0.5],[1,0.5]];portConstraint=eastwest;strokeColor=#007FFF;" parent="283" vertex="1">
                    <mxGeometry y="35" width="330" height="74" as="geometry"/>
                </mxCell>
                <mxCell id="291" value="" style="shape=partialRectangle;html=1;whiteSpace=wrap;connectable=0;overflow=hidden;fillColor=none;top=0;left=0;bottom=0;right=0;pointerEvents=1;strokeColor=#007FFF;" parent="290" vertex="1">
                    <mxGeometry width="66" height="74" as="geometry">
                        <mxRectangle width="66" height="74" as="alternateBounds"/>
                    </mxGeometry>
                </mxCell>
                <mxCell id="292" value="" style="shape=partialRectangle;html=1;whiteSpace=wrap;connectable=0;overflow=hidden;fillColor=none;top=0;left=0;bottom=0;right=0;pointerEvents=1;strokeColor=#007FFF;" parent="290" vertex="1">
                    <mxGeometry x="66" width="66" height="74" as="geometry">
                        <mxRectangle width="66" height="74" as="alternateBounds"/>
                    </mxGeometry>
                </mxCell>
                <mxCell id="293" value="" style="shape=partialRectangle;html=1;whiteSpace=wrap;connectable=0;overflow=hidden;fillColor=none;top=0;left=0;bottom=0;right=0;pointerEvents=1;strokeColor=#007FFF;" parent="290" vertex="1">
                    <mxGeometry x="132" width="66" height="74" as="geometry">
                        <mxRectangle width="66" height="74" as="alternateBounds"/>
                    </mxGeometry>
                </mxCell>
                <mxCell id="294" value="" style="shape=partialRectangle;html=1;whiteSpace=wrap;connectable=0;overflow=hidden;fillColor=none;top=0;left=0;bottom=0;right=0;pointerEvents=1;strokeColor=#007FFF;" parent="290" vertex="1">
                    <mxGeometry x="198" width="66" height="74" as="geometry">
                        <mxRectangle width="66" height="74" as="alternateBounds"/>
                    </mxGeometry>
                </mxCell>
                <mxCell id="295" value="" style="shape=partialRectangle;html=1;whiteSpace=wrap;connectable=0;overflow=hidden;fillColor=none;top=0;left=0;bottom=0;right=0;pointerEvents=1;strokeColor=#007FFF;" parent="290" vertex="1">
                    <mxGeometry x="264" width="66" height="74" as="geometry">
                        <mxRectangle width="66" height="74" as="alternateBounds"/>
                    </mxGeometry>
                </mxCell>
                <mxCell id="296" value="" style="shape=partialRectangle;collapsible=0;dropTarget=0;pointerEvents=0;fillColor=none;top=0;left=0;bottom=0;right=0;points=[[0,0.5],[1,0.5]];portConstraint=eastwest;strokeColor=#007FFF;" parent="283" vertex="1">
                    <mxGeometry y="109" width="330" height="74" as="geometry"/>
                </mxCell>
                <mxCell id="297" value="" style="shape=partialRectangle;html=1;whiteSpace=wrap;connectable=0;overflow=hidden;fillColor=none;top=0;left=0;bottom=0;right=0;pointerEvents=1;strokeColor=#007FFF;" parent="296" vertex="1">
                    <mxGeometry width="66" height="74" as="geometry">
                        <mxRectangle width="66" height="74" as="alternateBounds"/>
                    </mxGeometry>
                </mxCell>
                <mxCell id="298" value="" style="shape=partialRectangle;html=1;whiteSpace=wrap;connectable=0;overflow=hidden;fillColor=none;top=0;left=0;bottom=0;right=0;pointerEvents=1;strokeColor=#007FFF;" parent="296" vertex="1">
                    <mxGeometry x="66" width="66" height="74" as="geometry">
                        <mxRectangle width="66" height="74" as="alternateBounds"/>
                    </mxGeometry>
                </mxCell>
                <mxCell id="299" value="" style="shape=partialRectangle;html=1;whiteSpace=wrap;connectable=0;overflow=hidden;fillColor=none;top=0;left=0;bottom=0;right=0;pointerEvents=1;strokeColor=#007FFF;" parent="296" vertex="1">
                    <mxGeometry x="132" width="66" height="74" as="geometry">
                        <mxRectangle width="66" height="74" as="alternateBounds"/>
                    </mxGeometry>
                </mxCell>
                <mxCell id="300" value="" style="shape=partialRectangle;html=1;whiteSpace=wrap;connectable=0;overflow=hidden;fillColor=none;top=0;left=0;bottom=0;right=0;pointerEvents=1;strokeColor=#007FFF;" parent="296" vertex="1">
                    <mxGeometry x="198" width="66" height="74" as="geometry">
                        <mxRectangle width="66" height="74" as="alternateBounds"/>
                    </mxGeometry>
                </mxCell>
                <mxCell id="301" value="" style="shape=partialRectangle;html=1;whiteSpace=wrap;connectable=0;overflow=hidden;fillColor=none;top=0;left=0;bottom=0;right=0;pointerEvents=1;strokeColor=#007FFF;" parent="296" vertex="1">
                    <mxGeometry x="264" width="66" height="74" as="geometry">
                        <mxRectangle width="66" height="74" as="alternateBounds"/>
                    </mxGeometry>
                </mxCell>
                <mxCell id="311" value="AJOUTER&amp;nbsp;&lt;br&gt;PILOTE" style="rounded=1;whiteSpace=wrap;html=1;strokeColor=GREEN;" parent="180" vertex="1">
                    <mxGeometry x="169" y="429" width="110" height="30" as="geometry"/>
                </mxCell>
                <mxCell id="326" value="AJOUTER&lt;br&gt;APPAREIL" style="rounded=1;whiteSpace=wrap;html=1;strokeColor=GREEN;" parent="180" vertex="1">
                    <mxGeometry x="514" y="429" width="110" height="30" as="geometry"/>
                </mxCell>
                <mxCell id="215" value="" style="endArrow=none;html=1;exitX=0;exitY=0.25;exitDx=0;exitDy=0;entryX=1;entryY=0.25;entryDx=0;entryDy=0;fillColor=#6666FF;" parent="179" edge="1">
                    <mxGeometry width="50" height="50" relative="1" as="geometry">
                        <mxPoint y="81" as="sourcePoint"/>
                        <mxPoint x="660" y="81" as="targetPoint"/>
                    </mxGeometry>
                </mxCell>
                <mxCell id="355" value="NOUVEAU PILOTE&#10;formulaire" style="swimlane;strokeColor=#007FFF;" parent="167" vertex="1">
                    <mxGeometry x="444" y="711" width="200" height="200" as="geometry"/>
                </mxCell>
                <mxCell id="358" value="&lt;span&gt;NOM&lt;/span&gt;&lt;br&gt;&lt;span&gt;PRENOM&lt;/span&gt;&lt;br&gt;&lt;span&gt;EMAIL&lt;/span&gt;&lt;br&gt;&lt;span&gt;MOT DE PASSE&lt;br&gt;&lt;/span&gt;PILOTE&lt;br&gt;&lt;span&gt;INSTRUCTEUR&lt;/span&gt;" style="text;html=1;align=center;verticalAlign=middle;resizable=0;points=[];autosize=1;strokeColor=none;fillColor=none;" parent="355" vertex="1">
                    <mxGeometry x="48.25" y="66" width="100" height="90" as="geometry"/>
                </mxCell>
                <mxCell id="354" value="NOUVEL APPAREIL&#10;formulaire" style="swimlane;strokeColor=#007FFF;" parent="167" vertex="1">
                    <mxGeometry x="790" y="711" width="200" height="200" as="geometry"/>
                </mxCell>
                <mxCell id="361" style="edgeStyle=none;html=1;entryX=0.5;entryY=0;entryDx=0;entryDy=0;fillColor=#6666FF;" parent="167" source="311" target="355" edge="1">
                    <mxGeometry relative="1" as="geometry"/>
                </mxCell>
                <mxCell id="362" style="edgeStyle=none;html=1;fillColor=#6666FF;" parent="167" source="326" target="354" edge="1">
                    <mxGeometry relative="1" as="geometry"/>
                </mxCell>
                <mxCell id="239" style="edgeStyle=none;html=1;exitX=0;exitY=0.5;exitDx=0;exitDy=0;fillColor=#6666FF;entryX=0.5;entryY=0;entryDx=0;entryDy=0;" parent="167" source="236" target="375" edge="1">
                    <mxGeometry relative="1" as="geometry">
                        <mxPoint x="50" y="711" as="targetPoint"/>
                        <Array as="points">
                            <mxPoint x="50" y="390"/>
                        </Array>
                    </mxGeometry>
                </mxCell>
                <mxCell id="375" value="PROFIL" style="swimlane;strokeColor=#007FFF;" parent="167" vertex="1">
                    <mxGeometry x="-90" y="711" width="280" height="513" as="geometry">
                        <mxRectangle x="240" y="280" width="150" height="23" as="alternateBounds"/>
                    </mxGeometry>
                </mxCell>
                <mxCell id="376" value="photo" style="ellipse;whiteSpace=wrap;html=1;aspect=fixed;strokeColor=#007FFF;" parent="375" vertex="1">
                    <mxGeometry x="100" y="48" width="80" height="80" as="geometry"/>
                </mxCell>
                <mxCell id="377" value="NOM ET PRENOM" style="text;html=1;strokeColor=none;fillColor=none;align=center;verticalAlign=middle;whiteSpace=wrap;rounded=0;" parent="375" vertex="1">
                    <mxGeometry x="80" y="140" width="120" height="30" as="geometry"/>
                </mxCell>
                <mxCell id="379" value="PILOTE: true/false" style="text;html=1;strokeColor=none;fillColor=none;align=center;verticalAlign=middle;whiteSpace=wrap;rounded=0;" parent="375" vertex="1">
                    <mxGeometry x="65" y="164" width="150" height="30" as="geometry"/>
                </mxCell>
                <mxCell id="380" value="CREDITS : xxx.xx €" style="text;html=1;strokeColor=none;fillColor=none;align=center;verticalAlign=middle;whiteSpace=wrap;rounded=0;" parent="375" vertex="1">
                    <mxGeometry x="65" y="191" width="150" height="30" as="geometry"/>
                </mxCell>
                <mxCell id="381" value="HEURES DE VOLS : xx" style="text;html=1;strokeColor=none;fillColor=none;align=center;verticalAlign=middle;whiteSpace=wrap;rounded=0;" parent="375" vertex="1">
                    <mxGeometry x="50" y="223" width="180" height="30" as="geometry"/>
                </mxCell>
                <mxCell id="382" value="SUPPRIMER" style="rounded=1;whiteSpace=wrap;html=1;strokeColor=red;" parent="375" vertex="1">
                    <mxGeometry x="70" y="443" width="140" height="40" as="geometry"/>
                </mxCell>
                <mxCell id="383" value="INSTRUCTEUR : true/false" style="text;html=1;strokeColor=none;fillColor=none;align=center;verticalAlign=middle;whiteSpace=wrap;rounded=0;" parent="375" vertex="1">
                    <mxGeometry x="35" y="252" width="210" height="30" as="geometry"/>
                </mxCell>
                <mxCell id="384" value="ADMINISTRATEUR : true/false" style="text;html=1;strokeColor=none;fillColor=none;align=center;verticalAlign=middle;whiteSpace=wrap;rounded=0;" parent="375" vertex="1">
                    <mxGeometry x="35" y="283" width="210" height="30" as="geometry"/>
                </mxCell>
                <mxCell id="385" value="MOT DE PASSE : ........." style="text;html=1;strokeColor=none;fillColor=none;align=center;verticalAlign=middle;whiteSpace=wrap;rounded=0;" parent="375" vertex="1">
                    <mxGeometry x="30" y="315" width="210" height="30" as="geometry"/>
                </mxCell>
                <mxCell id="387" value="DATE D'INSCRIPTION: jj/mm/AAAA" style="text;html=1;strokeColor=none;fillColor=none;align=center;verticalAlign=middle;whiteSpace=wrap;rounded=0;" parent="375" vertex="1">
                    <mxGeometry x="30" y="345" width="210" height="30" as="geometry"/>
                </mxCell>
                <mxCell id="388" value="EMAIL : xxxxxxxx" style="text;html=1;strokeColor=none;fillColor=none;align=center;verticalAlign=middle;whiteSpace=wrap;rounded=0;" parent="375" vertex="1">
                    <mxGeometry x="35" y="374" width="210" height="30" as="geometry"/>
                </mxCell>
                <mxCell id="390" value="modifier" style="rounded=1;whiteSpace=wrap;html=1;strokeColor=#007FFF;" parent="375" vertex="1">
                    <mxGeometry x="200" y="196" width="50" height="20" as="geometry"/>
                </mxCell>
                <mxCell id="391" value="modifier" style="rounded=1;whiteSpace=wrap;html=1;strokeColor=#007FFF;" parent="375" vertex="1">
                    <mxGeometry x="210" y="228" width="50" height="20" as="geometry"/>
                </mxCell>
                <mxCell id="398" value="COMPTEUR D'HEURES" style="swimlane;" parent="167" vertex="1">
                    <mxGeometry x="-55" y="1324" width="210" height="200" as="geometry"/>
                </mxCell>
                <mxCell id="399" value="nombre d'heures actuel : xxx" style="text;html=1;strokeColor=none;fillColor=none;align=center;verticalAlign=middle;whiteSpace=wrap;rounded=0;" parent="398" vertex="1">
                    <mxGeometry x="20" y="40" width="170" height="30" as="geometry"/>
                </mxCell>
                <mxCell id="400" value="NOMBRE" style="text;html=1;strokeColor=none;fillColor=none;align=center;verticalAlign=middle;whiteSpace=wrap;rounded=0;" parent="398" vertex="1">
                    <mxGeometry x="75" y="90" width="60" height="20" as="geometry"/>
                </mxCell>
                <mxCell id="401" value="RETIRER" style="rounded=1;whiteSpace=wrap;html=1;strokeColor=red;" parent="398" vertex="1">
                    <mxGeometry x="10" y="160" width="80" height="30" as="geometry"/>
                </mxCell>
                <mxCell id="402" value="AJOUTER" style="rounded=1;whiteSpace=wrap;html=1;strokeColor=GREEN;" parent="398" vertex="1">
                    <mxGeometry x="120" y="160" width="80" height="30" as="geometry"/>
                </mxCell>
                <mxCell id="484" style="edgeStyle=none;html=1;exitX=1;exitY=0.5;exitDx=0;exitDy=0;entryX=0.5;entryY=0;entryDx=0;entryDy=0;" parent="167" source="391" target="398" edge="1">
                    <mxGeometry relative="1" as="geometry">
                        <Array as="points">
                            <mxPoint x="330" y="949"/>
                            <mxPoint x="330" y="1270"/>
                            <mxPoint x="50" y="1270"/>
                        </Array>
                    </mxGeometry>
                </mxCell>
                <mxCell id="392" value="CREDITER / DEBITER" style="swimlane;" parent="167" vertex="1">
                    <mxGeometry x="250" y="1324" width="210" height="200" as="geometry"/>
                </mxCell>
                <mxCell id="393" value="solde actuel : xx.xx €" style="text;html=1;strokeColor=none;fillColor=none;align=center;verticalAlign=middle;whiteSpace=wrap;rounded=0;" parent="392" vertex="1">
                    <mxGeometry x="20" y="40" width="170" height="30" as="geometry"/>
                </mxCell>
                <mxCell id="394" value="MONTANT" style="text;html=1;strokeColor=none;fillColor=none;align=center;verticalAlign=middle;whiteSpace=wrap;rounded=0;" parent="392" vertex="1">
                    <mxGeometry x="75" y="90" width="60" height="20" as="geometry"/>
                </mxCell>
                <mxCell id="396" value="DEBITER" style="rounded=1;whiteSpace=wrap;html=1;strokeColor=red;" parent="392" vertex="1">
                    <mxGeometry x="10" y="160" width="80" height="30" as="geometry"/>
                </mxCell>
                <mxCell id="397" value="CREDITER" style="rounded=1;whiteSpace=wrap;html=1;strokeColor=GREEN;" parent="392" vertex="1">
                    <mxGeometry x="120" y="160" width="80" height="30" as="geometry"/>
                </mxCell>
                <mxCell id="483" style="edgeStyle=none;html=1;exitX=1;exitY=0.5;exitDx=0;exitDy=0;entryX=0.5;entryY=0;entryDx=0;entryDy=0;" parent="167" source="390" target="392" edge="1">
                    <mxGeometry relative="1" as="geometry">
                        <Array as="points">
                            <mxPoint x="355" y="920"/>
                        </Array>
                    </mxGeometry>
                </mxCell>
                <mxCell id="245" value="APPAREIL" style="swimlane;strokeColor=#007FFF;" parent="1" vertex="1">
                    <mxGeometry x="1672" y="1041" width="310" height="279" as="geometry">
                        <mxRectangle x="240" y="280" width="150" height="23" as="alternateBounds"/>
                    </mxGeometry>
                </mxCell>
                <mxCell id="249" value="IMMATRICULATION : xxxxxx" style="text;html=1;strokeColor=none;fillColor=none;align=center;verticalAlign=middle;whiteSpace=wrap;rounded=0;" parent="245" vertex="1">
                    <mxGeometry y="30" width="310" height="30" as="geometry"/>
                </mxCell>
                <mxCell id="251" value="SUPPRIMER" style="rounded=1;whiteSpace=wrap;html=1;strokeColor=red;" parent="245" vertex="1">
                    <mxGeometry x="85" y="222" width="140" height="40" as="geometry"/>
                </mxCell>
                <mxCell id="254" value="HEURES DE VOL : xxx" style="text;html=1;strokeColor=none;fillColor=none;align=center;verticalAlign=middle;whiteSpace=wrap;rounded=0;" parent="245" vertex="1">
                    <mxGeometry x="15" y="180" width="280" height="30" as="geometry"/>
                </mxCell>
                <mxCell id="257" value="DATE ACHAT : jjmmaaaa&amp;nbsp;" style="text;html=1;strokeColor=none;fillColor=none;align=center;verticalAlign=middle;whiteSpace=wrap;rounded=0;" parent="245" vertex="1">
                    <mxGeometry y="121" width="310" height="30" as="geometry"/>
                </mxCell>
                <mxCell id="258" value="MODEL : xxxxxxxx" style="text;html=1;strokeColor=none;fillColor=none;align=center;verticalAlign=middle;whiteSpace=wrap;rounded=0;" parent="245" vertex="1">
                    <mxGeometry y="91" width="310" height="30" as="geometry"/>
                </mxCell>
                <mxCell id="260" value="NOMBRE DE PLACES :" style="text;html=1;strokeColor=none;fillColor=none;align=center;verticalAlign=middle;whiteSpace=wrap;rounded=0;" parent="245" vertex="1">
                    <mxGeometry y="61" width="310" height="30" as="geometry"/>
                </mxCell>
                <mxCell id="498" value="TARIF HORAIRE xxx.xx" style="text;html=1;strokeColor=none;fillColor=none;align=center;verticalAlign=middle;whiteSpace=wrap;rounded=0;" parent="245" vertex="1">
                    <mxGeometry x="75" y="150" width="160" height="30" as="geometry"/>
                </mxCell>
                <mxCell id="262" style="edgeStyle=none;html=1;exitX=1;exitY=0.5;exitDx=0;exitDy=0;entryX=0.523;entryY=0.006;entryDx=0;entryDy=0;entryPerimeter=0;fillColor=#6666FF;" parent="1" source="242" target="245" edge="1">
                    <mxGeometry relative="1" as="geometry">
                        <Array as="points">
                            <mxPoint x="1835" y="722"/>
                        </Array>
                    </mxGeometry>
                </mxCell>
                <mxCell id="357" value="IMMATRICULATION&lt;br&gt;DATE ACHAT&lt;br&gt;NOMBRE DE PLACES&lt;br&gt;TARIF HORRAIRE" style="text;html=1;align=center;verticalAlign=middle;resizable=0;points=[];autosize=1;strokeColor=none;fillColor=none;" parent="1" vertex="1">
                    <mxGeometry x="1390" y="1110" width="140" height="60" as="geometry"/>
                </mxCell>
                <mxCell id="365" value="heure de retour" style="rounded=1;whiteSpace=wrap;html=1;strokeColor=#007FFF;" parent="1" vertex="1">
                    <mxGeometry x="-749" y="967" width="140" height="30" as="geometry"/>
                </mxCell>
                <mxCell id="487" value="EVENEMENT" style="swimlane;strokeColor=#007FFF;" parent="1" vertex="1">
                    <mxGeometry x="1720" y="346.5" width="191" height="323" as="geometry"/>
                </mxCell>
                <mxCell id="488" value="VOL N° xxx" style="text;html=1;strokeColor=none;fillColor=none;align=center;verticalAlign=middle;whiteSpace=wrap;rounded=0;" parent="487" vertex="1">
                    <mxGeometry x="-1" y="22" width="181" height="30" as="geometry"/>
                </mxCell>
                <mxCell id="489" value="APPAREIL : xxx" style="text;html=1;strokeColor=none;fillColor=none;align=center;verticalAlign=middle;whiteSpace=wrap;rounded=0;" parent="487" vertex="1">
                    <mxGeometry y="82" width="180" height="30" as="geometry"/>
                </mxCell>
                <mxCell id="490" value="DEPART : xxHxx" style="text;html=1;align=center;verticalAlign=middle;resizable=0;points=[];autosize=1;strokeColor=none;fillColor=none;" parent="487" vertex="1">
                    <mxGeometry x="34.5" y="147" width="110" height="20" as="geometry"/>
                </mxCell>
                <mxCell id="491" value="ANNULER" style="rounded=1;whiteSpace=wrap;html=1;strokeColor=red;" parent="487" vertex="1">
                    <mxGeometry x="41" y="279" width="100" height="20" as="geometry"/>
                </mxCell>
                <mxCell id="492" value="PILOTE : xxxxx" style="text;html=1;strokeColor=none;fillColor=none;align=center;verticalAlign=middle;whiteSpace=wrap;rounded=0;" parent="487" vertex="1">
                    <mxGeometry x="-1" y="52" width="181" height="30" as="geometry"/>
                </mxCell>
                <mxCell id="493" value="ARRIVEE : xxHxx" style="text;html=1;align=center;verticalAlign=middle;resizable=0;points=[];autosize=1;strokeColor=none;fillColor=none;" parent="487" vertex="1">
                    <mxGeometry x="34.5" y="178" width="110" height="20" as="geometry"/>
                </mxCell>
                <mxCell id="494" value="DATE : jj/mm/AAA" style="text;html=1;strokeColor=none;fillColor=none;align=center;verticalAlign=middle;whiteSpace=wrap;rounded=0;" parent="487" vertex="1">
                    <mxGeometry x="1" y="112" width="180" height="30" as="geometry"/>
                </mxCell>
                <mxCell id="495" value="NOMBRE D'HEURES : xx" style="text;html=1;strokeColor=none;fillColor=none;align=center;verticalAlign=middle;whiteSpace=wrap;rounded=0;" parent="487" vertex="1">
                    <mxGeometry x="-9" y="203" width="200" height="30" as="geometry"/>
                </mxCell>
                <mxCell id="496" value="PRIX : xxx.xx" style="text;html=1;strokeColor=none;fillColor=none;align=center;verticalAlign=middle;whiteSpace=wrap;rounded=0;" parent="487" vertex="1">
                    <mxGeometry x="-10.5" y="233" width="200" height="30" as="geometry"/>
                </mxCell>
                <mxCell id="497" style="edgeStyle=none;html=1;exitX=1;exitY=0.5;exitDx=0;exitDy=0;entryX=0;entryY=0.5;entryDx=0;entryDy=0;" parent="1" source="290" target="487" edge="1">
                    <mxGeometry relative="1" as="geometry"/>
                </mxCell>
            </root>
        </mxGraphModel>
    </diagram>
</mxfile>